<?xml version="1.0" standalone="no"?>
<!DOCTYPE svg PUBLIC "-//W3C//DTD SVG 1.1//EN" "http://www.w3.org/Graphics/SVG/1.1/DTD/svg11.dtd" >
<svg>
<metadata>
Created by FontForge 20120731 at Mon Aug 13 03:58:50 2018
 By www-data
URW Software, Copyright 1994 by URW
</metadata>
<defs>
<font id="MicrogrammaDEE-BoldExte" horiz-adv-x="1024" >
  <font-face 
    font-family="MicrogrammaDEEBolExt"
    font-weight="400"
    font-stretch="normal"
    units-per-em="2048"
    panose-1="0 0 0 0 0 0 0 0 0 0"
    ascent="1606"
    descent="-442"
    x-height="969"
    cap-height="1365"
    bbox="-83 -701 3872 2072"
    underline-thickness="246"
    underline-position="-82"
    unicode-range="U+0020-2219"
  />
<missing-glyph horiz-adv-x="512" 
d="M51 0v1365h410v-1365h-410zM410 51v1263h-308v-1263h308z" />
    <glyph glyph-name=".notdef" horiz-adv-x="512" 
d="M51 0v1365h410v-1365h-410zM410 51v1263h-308v-1263h308z" />
    <glyph glyph-name="glyph1" horiz-adv-x="0" 
 />
    <glyph glyph-name="glyph2" horiz-adv-x="512" 
 />
    <glyph glyph-name="space" unicode=" " horiz-adv-x="512" 
 />
    <glyph glyph-name="exclam" unicode="!" horiz-adv-x="683" 
d="M137 1365h409v-780h-409v780zM112 427h458v-427h-458v427z" />
    <glyph glyph-name="quotedbl" unicode="&#x22;" horiz-adv-x="1065" 
d="M431 762h-316l-40 603h396zM950 762h-316l-40 603h396z" />
    <glyph glyph-name="numbersign" unicode="#" horiz-adv-x="1857" 
d="M560 1365h260l-47 -331h410l46 331h260l-47 -331h273l-30 -218h-273l-38 -267h274l-31 -218h-274l-46 -331h-259l46 331h-410l-46 -331h-259l46 331h-273l31 218h273l37 267h-273l31 218h273zM743 816l-38 -267h410l37 267h-409z" />
    <glyph glyph-name="dollar" unicode="$" horiz-adv-x="1857" 
d="M806 1497h223v-115q366 0 525 -34q154 -32 211 -140q33 -62 33 -192q0 -9 -1 -73h-362q1 72 -26 94q-27 20 -122 28q-30 2 -226 8h-32v-228l24 -1q320 -7 392 -12q178 -13 258 -59q90 -52 115 -150q22 -84 22 -186q0 -279 -120 -371q-74 -56 -188 -71q-109 -15 -232 -15
l-238 2h-33v-144h-223v144h-71q-411 0 -541 51q-104 40 -144 126q-34 74 -34 207q0 30 2 107h362q1 -19 1 -25q2 -88 17 -111q18 -27 67 -35q73 -12 281 -12h60v255q-193 2 -257 3q-219 4 -318 39q-133 46 -174 166q-24 71 -24 201q0 211 74 301q60 72 173 99q122 29 438 29
q45 0 88 -1v115zM806 1072h-19q-272 -5 -308 -18q-60 -23 -60 -89q0 -92 99 -106q78 -12 288 -13v226zM1029 295q92 -2 125 -2q198 0 249 20q53 20 53 99q0 52 -20 78q-25 33 -132 42q-40 4 -217 7l-58 2v-246z" />
    <glyph glyph-name="percent" unicode="%" horiz-adv-x="2746" 
d="M589 1386q334 0 447 -54q63 -30 78 -131q8 -55 8 -222q0 -213 -21 -278q-21 -67 -109 -93q-123 -37 -409 -37q-317 0 -434 44q-76 29 -96 122q-12 58 -12 245q0 226 29 289q30 64 134 87q124 28 385 28zM575 1174q-184 0 -239 -22q-34 -13 -46 -62q-9 -37 -9 -112
q0 -100 18 -139q15 -32 60 -43q61 -14 219 -14q178 0 250 20q34 10 44 60q9 44 9 116q0 95 -16 142q-11 30 -64 40q-83 14 -226 14zM2008 1397l140 -160l-1407 -1269l-144 161zM2152 801q326 0 456 -53q72 -29 89 -131q8 -50 8 -227q0 -134 -4.5 -190t-18.5 -94
q-24 -65 -121 -90q-140 -37 -417 -37q-299 0 -419 47q-73 29 -92 115q-13 58 -13 253q0 131 6.5 195t23.5 98q29 59 125 83q127 31 377 31zM2142 586q-169 0 -225 -20q-35 -13 -46 -61q-9 -38 -9 -115q0 -102 17 -142q14 -31 62 -42q61 -13 204 -13q194 0 264 21q32 9 43 51
q12 44 12 125q0 104 -20 147q-12 26 -57 34q-85 15 -245 15z" />
    <glyph glyph-name="ampersand" unicode="&#x26;" horiz-adv-x="1939" 
d="M1371 748h350v-68q0 -202 -18 -264l319 -158l-131 -265l-286 146q-51 -71 -133 -98q-118 -39 -260 -47q-160 -8 -342 -8q-354 0 -483 17q-155 20 -228 78q-71 58 -88 154q-16 84 -16 188q0 170 45 241q43 68 155 95q32 7 83 14q-53 22 -78 51q-30 34 -43 84.5t-13 133.5
q0 167 59 234q52 59 149 81q96 22 443 22q350 0 447 -10q138 -13 199 -60q67 -53 82 -156q9 -58 9 -132q0 -25 -1 -89h-365q-4 106 -24 124q-27 24 -254 24q-287 0 -316 -11q-42 -15 -42 -68q0 -36 17 -52q13 -11 68 -38l694 -338v18q3 77 3 96q0 27 -1 61zM581 618
q-65 -7 -92 -19q-30 -13 -40 -53q-7 -31 -7 -104q0 -78 22 -109q21 -31 90 -38q70 -8 261 -8q28 0 249 2q149 1 168 3t39 11z" />
    <glyph glyph-name="quotesingle" unicode="'" horiz-adv-x="546" 
d="M431 762h-316l-40 603h396z" />
    <glyph glyph-name="parenleft" unicode="(" horiz-adv-x="804" 
d="M735 1411v-257h-60q-144 0 -178 -23q-26 -15 -36.5 -43.5t-14.5 -89.5q-3 -53 -6 -379q3 -292 8 -362q4 -54 26 -81.5t64 -34.5q62 -5 197 -7v-262q-56 1 -73 0q-270 -1 -361 30q-176 61 -214 282q-19 108 -19 488q0 333 20 440q36 190 171 253q71 32 188 40q44 3 288 6z
" />
    <glyph glyph-name="parenright" unicode=")" horiz-adv-x="804" 
d="M68 1411h83q259 0 349 -29q174 -57 215 -270q20 -107 20 -440q0 -380 -19 -488q-34 -196 -168 -263q-73 -36 -195 -44q-40 -2 -285 -5v262q47 1 62 0q142 0 176 21q27 15 38 48t15 107q2 48 4 309q-3 320 -4 355.5t-8 81.5q-12 74 -81 88q-64 10 -202 10v257z" />
    <glyph glyph-name="asterisk" unicode="*" 
d="M420 1365h190v-203l196 55l52 -182l-189 -54l115 -170l-153 -109l-120 171l-123 -161l-151 114l122 163l-194 64l60 179l195 -65v198z" />
    <glyph glyph-name="plus" unicode="+" horiz-adv-x="1857" 
d="M805 573h-546v246h546v481h246v-481h546v-246h-546v-480h-246v480z" />
    <glyph glyph-name="comma" unicode="," horiz-adv-x="698" 
d="M146 405h437v-398q0 -135 -15 -208q-10 -52 -45.5 -92t-83.5 -53q-72 -20 -247 -20q-45 0 -103 2v214h30h37q67 1 89 39q15 27 15 73v38h-114v405z" />
    <glyph glyph-name="hyphen" unicode="-" horiz-adv-x="864" 
d="M3 630h861v-277h-864z" />
    <glyph glyph-name="period" unicode="." horiz-adv-x="669" 
d="M116 363h437v-363h-437v363z" />
    <glyph glyph-name="slash" unicode="/" horiz-adv-x="1254" 
d="M1322 1661l-1130 -1957h-260l1129 1957h261z" />
    <glyph glyph-name="zero" unicode="0" horiz-adv-x="1857" 
d="M932 1381q387 0 548 -24q183 -26 254 -159q44 -80 50 -238q2 -46 2 -278q0 -279 -6 -344q-16 -156 -90 -231q-80 -80 -210 -99q-161 -24 -551 -24t-551 24q-183 27 -254 158q-44 81 -50 239q-2 46 -2 272q0 285 6 350q16 156 90 231q79 80 210 99q162 24 554 24z
M904 1026q-284 0 -346 -37q-45 -28 -59 -108q-11 -62 -11 -198q0 -177 22 -243q19 -58 81 -78q50 -17 152 -19l159 -4q255 5 294 9q69 8 103.5 28.5t48.5 63.5q22 65 22 244q0 176 -22 241q-20 58 -81 78q-68 23 -363 23z" />
    <glyph glyph-name="one" unicode="1" horiz-adv-x="1857" 
d="M712 1365h658v-1365h-416v1009h-108l-403 -340l-230 268z" />
    <glyph glyph-name="two" unicode="2" horiz-adv-x="1857" 
d="M513 857h-403q0 165 13 251q17 106 77.5 165t174.5 80q158 29 561 29q382 0 475 -9q154 -14 224 -70t87 -152q15 -86 15 -201q0 -153 -22 -226q-34 -113 -128 -161q-105 -53 -328 -66q-547 -34 -625 -44q-87 -9 -111 -58q-8 -20 -11 -81h1247v-314h-1629q-4 82 -4 139
q0 252 15 353q30 192 221 240q98 24 209 33l285 22q311 24 352 29q96 10 123 44q17 21 17 85q0 71 -20 95q-25 31 -111 38q-49 4 -247 4q-277 0 -374 -14q-57 -8 -70 -41q-12 -32 -13 -170z" />
    <glyph glyph-name="three" unicode="3" horiz-adv-x="1857" 
d="M498 890h-396q-1 72 -1 89q0 186 66 265q59 71 177 99q159 39 625 39q311 0 433 -17q135 -18 202 -72q65 -51 83 -127q19 -76 19 -166q0 -132 -37 -194q-45 -75 -185 -105q118 -27 161 -57q51 -35 70 -103q17 -61 17 -171q0 -161 -54 -236q-55 -75 -173 -107
q-159 -44 -753 -44q-237 0 -349 19q-151 27 -215 86q-63 58 -78 157q-13 83 -13 246h396q1 -19 1 -25q1 -87 16 -114q13 -24 39 -32.5t91 -10.5q47 -2 269 -5q264 6 298 10q85 7 108 46q14 22 14 69q0 85 -59 102q-48 14 -295 14h-241v294h315q169 0 212 26q42 26 42 91
q0 75 -52 94q-51 18 -305 18q-313 0 -375 -12q-60 -11 -68 -66q-2 -11 -5 -100z" />
    <glyph glyph-name="four" unicode="4" horiz-adv-x="1857" 
d="M1844 561v-307h-264v-254h-395v254h-1091v523l812 588h674v-804h264zM1185 561v488h-84l-635 -434v-54h719z" />
    <glyph glyph-name="five" unicode="5" horiz-adv-x="1857" 
d="M149 1365h1519v-294h-889q-218 -1 -265 10v-146q0 -65 -3 -102q64 59 126 76q103 27 406 27q433 0 555 -79q77 -50 107 -143q27 -83 27 -225q0 -205 -48 -316q-43 -99 -170 -143q-107 -37 -270 -44q-75 -3 -200 -3q-308 0 -467 6q-313 13 -404 103q-77 78 -77 270
q0 20 1 60h396q2 -78 25 -100q23 -21 106.5 -29.5t262.5 -8.5q243 0 291 3q81 5 109 24q32 20 38 79q4 41 4 86q0 94 -29 122q-37 35 -207 40q-232 6 -280 6q-216 0 -262 -24q-38 -20 -38 -63q0 -7 1 -19h-365v827z" />
    <glyph glyph-name="six" unicode="6" horiz-adv-x="1857" 
d="M1726 984h-389q-3 50 -22 63q-22 15 -68 18q-182 10 -323 10q-281 0 -352 -29q-43 -18 -56 -89q-6 -36 -6 -110q0 -35 1 -84q71 68 151 91q102 30 402 30q396 0 522 -82q78 -51 105 -140q25 -79 25 -223q0 -205 -50 -293q-52 -91 -165 -126q-94 -29 -287 -33
q-219 -4 -373 -4q-305 0 -452 30q-210 44 -251 239q-18 91 -21 205q-3 122 -3 271q0 222 11 307q22 173 105 241q84 68 318 91q153 15 409 15q393 0 553 -33q175 -35 203 -187q11 -63 13 -178zM858 577q-224 0 -270 -18q-71 -27 -71 -128q0 -108 74 -128q49 -13 265 -13
q263 0 356 10q70 7 89 55q12 28 12 76q0 80 -31 108q-36 33 -194 36q-134 2 -230 2z" />
    <glyph glyph-name="seven" unicode="7" horiz-adv-x="1857" 
d="M155 1365h1561v-318l-775 -1047h-525l772 1019h-1033v346z" />
    <glyph glyph-name="eight" unicode="8" horiz-adv-x="1857" 
d="M392 698q-105 7 -155 39q-95 62 -95 264q0 174 64 254q54 67 168 93q147 33 554 33q488 0 619 -54q96 -39 134 -123q33 -76 33 -203q0 -131 -36 -198q-43 -79 -145 -97q-24 -5 -69 -8q120 -21 163 -50q59 -39 82 -108q21 -64 21 -184q0 -168 -57 -244q-57 -75 -191 -103
q-102 -21 -283 -24q-70 -1 -271 -1q-318 0 -418 8q-168 14 -247 55q-96 51 -120 152q-17 70 -17 157q0 161 42 229q45 72 142 97q27 7 82 16zM871 1075q-225 0 -278 -19q-55 -20 -55 -105q0 -44 16 -71q15 -25 65 -33q60 -9 390 -9q152 0 191 4q90 8 106 42q12 25 12 72
q0 61 -28 82q-37 29 -163 32q-216 5 -256 5zM928 545q-305 0 -352 -16q-34 -12 -45 -42q-9 -25 -9 -74q0 -55 15 -78q17 -27 69 -35q51 -9 293 -9q260 0 351 12q60 8 75 49q9 24 9 72q0 50 -13 74q-19 36 -122 41q-113 6 -271 6z" />
    <glyph glyph-name="nine" unicode="9" horiz-adv-x="1857" 
d="M159 397h396q1 -12 2 -16q2 -34 9 -46q15 -29 113 -38q74 -7 207 -7q323 0 393 32q49 22 58 84q9 59 10 196q-45 -51 -87 -70q-84 -38 -208 -47q-115 -8 -237 -8q-399 0 -525 54q-102 44 -138 154q-27 82 -27 244q0 219 61 306q55 78 177 109q144 37 550 37
q340 0 528 -28q225 -34 272 -210q24 -90 28 -210q5 -163 5 -305q0 -265 -24 -373q-40 -185 -244 -228q-211 -44 -692 -44q-234 0 -373 21q-188 29 -230 155q-24 73 -24 238zM917 1074q-268 0 -326 -21q-63 -22 -63 -127q0 -64 17 -93q17 -28 67 -37q64 -12 267 -12
q350 0 404 22q38 16 51 51q9 25 9 74q0 68 -20 95q-23 31 -126 40q-99 8 -280 8z" />
    <glyph glyph-name="colon" unicode=":" horiz-adv-x="669" 
d="M116 969h437v-363h-437v363zM116 363h437v-363h-437v363z" />
    <glyph glyph-name="semicolon" unicode=";" horiz-adv-x="698" 
d="M146 405h437v-398q0 -135 -15 -208q-10 -52 -45.5 -92t-83.5 -53q-72 -20 -247 -20q-45 0 -103 2v214h30h37q67 1 89 39q15 27 15 73v38h-114v405zM146 969h437v-363h-437v363z" />
    <glyph glyph-name="less" unicode="&#x3c;" 
d="M955 1342v-393l-470 -267l470 -266v-393l-887 496v329z" />
    <glyph glyph-name="equal" unicode="=" horiz-adv-x="1857" 
d="M259 1024h1338v-246h-1338v246zM259 615h1338v-246h-1338v246z" />
    <glyph glyph-name="greater" unicode="&#x3e;" 
d="M68 1342l887 -494v-329l-887 -496v393l470 266l-470 267v393z" />
    <glyph glyph-name="question" unicode="?" horiz-adv-x="1445" 
d="M386 877h-359q1 55 1 72q-1 115 10.5 178.5t39.5 104.5q54 77 163 110q146 44 523 44q384 0 507 -66q85 -46 115 -132q25 -73 25 -217q0 -111 -15.5 -175.5t-51.5 -106.5q-47 -56 -157 -84q-69 -18 -247 -48q-90 -16 -110 -38q-10 -12 -11 -57h-357q-1 42 -1 59
q0 167 63 228q56 55 224 82q191 30 247 51q62 23 62 102q0 86 -74 104q-57 15 -249 15q-193 0 -248 -10q-89 -15 -95 -100q-3 -26 -4 -85q0 -10 -1 -31zM425 364h442v-364h-442v364z" />
    <glyph glyph-name="at" unicode="@" horiz-adv-x="1952" 
d="M1229 1036h297l-39 -441v-12q0 -45 11 -59q17 -21 79 -21q44 0 63 21q26 28 32 140q4 71 4 148q0 197 -22 272q-27 95 -152 106q-91 8 -338 8q-453 0 -565 -6q-172 -10 -233 -70q-68 -65 -79 -210q-5 -57 -5 -142q0 -215 6 -307q11 -156 53 -210q48 -60 178 -77
q65 -9 310 -9q353 0 494 12q108 10 147 51q8 8 21 25l174 -63q-33 -79 -89 -118q-75 -51 -230 -69q-109 -12 -555 -12q-300 0 -395 18q-224 43 -288 221q-40 113 -40 429q0 322 43 435q77 202 306 252q82 18 228 21q145 3 396 3q415 0 525 -13q157 -20 232 -104
q66 -74 83 -217q10 -81 10 -223q0 -179 -23 -277q-31 -134 -126 -180q-67 -32 -228 -32q-147 0 -205 13q-83 18 -109 69q-5 12 -12 32h-8q-23 -50 -57 -70q-76 -45 -271 -45q-242 0 -324 52q-55 35 -77 90q-18 46 -18 121q0 292 110 387q61 52 175 69q63 10 221 10
q146 0 204 -34q41 -23 70 -79h8zM989 836q-171 0 -213 -31q-44 -33 -44 -156q0 -69 39 -85q48 -20 178 -20q157 0 207 30q47 28 47 155q0 47 -15 67q-29 40 -199 40z" />
    <glyph glyph-name="A" unicode="A" horiz-adv-x="2016" 
d="M1578 0l-117 231h-903l-117 -231h-475l724 1365h646l714 -1365h-472zM1315 530l-263 517h-83l-263 -517h609z" />
    <glyph glyph-name="B" unicode="B" horiz-adv-x="1859" 
d="M96 0v1365h981q313 -1 372 -5q134 -8 197 -48q72 -46 94 -127q20 -77 20 -174q0 -120 -23 -181q-38 -99 -161 -135q91 -16 135 -46q100 -67 100 -282q0 -167 -52 -247q-46 -70 -140 -96q-80 -21 -268 -22l-271 -2h-984zM492 827h586q193 0 230 15q49 19 49 98
q0 81 -59 97q-23 6 -220 7h-586v-217zM492 328h588q164 1 193 2q91 4 116 36q19 26 19 80q0 86 -62 101q-22 6 -266 7h-588v-226z" />
    <glyph glyph-name="C" unicode="C" horiz-adv-x="1862" 
d="M1394 527h416q4 -100 4 -137q0 -149 -47 -239q-49 -94 -187 -131q-151 -41 -522 -41q-409 0 -551 13q-132 11 -208 35t-126 70q-67 62 -85 164q-20 107 -20 412q0 293 15 395q22 153 119 222q74 52 236 74q168 22 603 22q259 0 369 -11q166 -16 242 -64q94 -59 119 -171
q18 -80 18 -185q0 -18 -1 -79h-416q-2 50 -4 68q-8 61 -55 77q-71 24 -388 24q-216 0 -298 -12q-100 -14 -124 -109q-19 -77 -19 -248q0 -176 19 -243q24 -87 132 -101q88 -11 309 -11q239 0 326 10q82 9 104 59q18 42 20 137z" />
    <glyph glyph-name="D" unicode="D" horiz-adv-x="1967" 
d="M96 0v1365h985q321 0 415 -11q182 -21 268 -95q92 -80 121 -258q14 -85 14 -297q0 -271 -24 -377q-33 -144 -108 -212q-51 -47 -124 -71t-197 -35q-98 -9 -364 -9h-986zM506 348h579q176 0 263 14q97 16 122 107q19 66 19 208q0 152 -20 223q-24 89 -110 108
q-68 16 -278 16h-575v-676z" />
    <glyph glyph-name="E" unicode="E" horiz-adv-x="1650" 
d="M96 1365h1512v-321h-1102v-197h1046v-300h-1046v-219h1110v-328h-1520v1365z" />
    <glyph glyph-name="F" unicode="F" horiz-adv-x="1538" 
d="M96 1365h1443v-321h-1027v-258h977v-314h-977v-472h-416v1365z" />
    <glyph glyph-name="G" unicode="G" horiz-adv-x="1946" 
d="M925 774h951q2 -45 2 -58q0 -268 -15 -414q-24 -236 -268 -286q-126 -25 -276 -30q-159 -6 -377 -6q-387 0 -553 28q-230 38 -285 212q-27 85 -31 195q-5 138 -5 294q0 264 25 371q36 149 124 210q46 33 115.5 50.5t196.5 28.5q179 16 484 16q392 0 555 -31
q165 -31 232 -110q59 -71 72 -224q3 -41 3 -126h-416q-1 56 -6 76q-14 51 -89 61q-99 13 -390 13q-259 0 -359 -17q-95 -17 -115 -104q-16 -66 -16 -235q0 -194 17 -265q22 -95 136 -106q56 -5 338 -9q308 2 397 12q81 13 93 71q7 36 7 110h-547v273z" />
    <glyph glyph-name="H" unicode="H" horiz-adv-x="2004" 
d="M96 1365h437v-488h939v488h437v-1365h-437v495h-939v-495h-437v1365z" />
    <glyph glyph-name="I" unicode="I" horiz-adv-x="628" 
d="M96 1365h437v-1365h-437v1365z" />
    <glyph glyph-name="J" unicode="J" horiz-adv-x="1536" 
d="M1032 1365h416v-816q0 -220 -29 -323q-19 -70 -70 -123t-119 -76q-99 -33 -225 -40q-124 -7 -256 -7q-347 0 -500 37q-187 45 -225 224q-17 77 -17 203q0 60 3 146h416q0 -104 5 -139q8 -58 42 -81q52 -35 246 -35q222 0 275 46q29 25 35 84q3 29 3 92v808z" />
    <glyph glyph-name="K" unicode="K" horiz-adv-x="1942" 
d="M96 1365h416v-495h228l540 504h636l-789 -679l856 -695h-632l-611 522h-228v-522h-416v1365z" />
    <glyph glyph-name="L" unicode="L" horiz-adv-x="1503" 
d="M96 1365h437v-1017h971v-348h-1408v1365z" />
    <glyph glyph-name="M" unicode="M" horiz-adv-x="2507" 
d="M96 1365h754l406 -886l406 886h750v-1365h-410l10 1022h-68l-515 -1022h-345l-515 1022h-73l10 -1022h-410v1365z" />
    <glyph glyph-name="N" unicode="N" horiz-adv-x="2091" 
d="M96 1365h729l715 -1018h43l-10 1018h423v-1365h-723l-718 1019h-45l9 -1019h-423v1365z" />
    <glyph glyph-name="O" unicode="O" horiz-adv-x="2012" 
d="M1018 1385q430 0 596 -22q239 -32 293 -227q37 -134 37 -454q0 -319 -37 -453q-54 -195 -293 -227q-165 -22 -608 -22q-442 0 -608 22q-239 32 -293 227q-37 134 -37 453q0 321 37 454q54 195 293 227q167 22 620 22zM990 1030q-313 0 -380 -17q-81 -21 -104 -95
q-22 -73 -22 -269q0 -127 13 -183q25 -104 151 -119q93 -12 358 -12t358 12q126 15 150 119q14 57 14 177q0 147 -8 209q-14 103 -64 137q-45 32 -189 39q-52 2 -277 2z" />
    <glyph glyph-name="P" unicode="P" horiz-adv-x="1776" 
d="M96 0v1365h935q278 0 358 -11q220 -29 292 -157q54 -96 54 -343q0 -253 -59 -355q-56 -96 -185 -133q-95 -27 -255 -31q-72 -1 -201 -1h-523v-334h-416zM512 675h520q127 1 153 3q92 6 117 59q16 33 16 118q0 80 -18 112q-27 48 -113 53q-27 2 -155 4h-520v-349z" />
    <glyph glyph-name="Q" unicode="Q" horiz-adv-x="2038" 
d="M2108 276l-157 -290l-134 95q-80 -62 -203 -79q-160 -22 -622 -22q-429 0 -594 22q-239 32 -293 227q-37 134 -37 454q0 319 37 453q54 195 293 227q166 22 608 22t608 -22q239 -32 293 -227q26 -93 31 -208q6 -118 6 -254q0 -201 -12 -307zM1103 869l424 -268q1 28 1 51
q0 138 -8 199q-14 104 -64 138q-45 32 -189 39q-51 2 -261 2q-329 0 -396 -17q-81 -21 -104 -95q-22 -74 -22 -275q0 -120 14 -177q24 -104 150 -119q92 -12 380 -12q254 0 349 13l-440 233z" />
    <glyph glyph-name="R" unicode="R" horiz-adv-x="1843" 
d="M96 0v1365h1005q356 -1 420 -7q73 -7 132.5 -42.5t92.5 -90.5q34 -59 41 -123q9 -75 9 -181q0 -167 -23 -233q-35 -98 -132 -136q-33 -13 -99 -23q131 -10 188 -75q25 -29 35.5 -66.5t14.5 -109.5q1 -37 1 -151v-127h-410v73q0 122 -11 175q-16 76 -81 90q-43 9 -181 9
h-586v-347h-416zM512 688h585q131 2 155 4q88 5 111 54q16 34 16 115q0 70 -14 104q-21 50 -101 56q-28 2 -168 3h-584v-336z" />
    <glyph glyph-name="S" unicode="S" horiz-adv-x="1767" 
d="M48 452h403q-1 -101 41 -130q22 -14 50 -19t98 -7q35 -1 229 -2q266 1 308 3q79 6 104 21q35 22 35 98q0 52 -22 73q-30 29 -143 31q-78 0 -326 12q-256 12 -332 14q-198 6 -279 46q-104 51 -136 174q-18 68 -18 178q0 232 88 327q66 72 200 95q121 20 576 20
q296 0 418 -17q161 -23 232 -80q96 -79 96 -283q0 -22 -1 -70h-403q-2 49 -7 68q-14 56 -92 63q-69 6 -336 6q-264 0 -313 -15q-55 -18 -55 -93q0 -72 58 -88q49 -13 441 -25q355 -10 453 -25q99 -15 157.5 -45t93.5 -85q53 -81 53 -261q0 -201 -52 -295q-52 -93 -170 -127
q-116 -34 -639 -34q-318 0 -459 17q-172 20 -247 78q-81 62 -96 175q-8 55 -8 130v72z" />
    <glyph glyph-name="T" unicode="T" horiz-adv-x="1652" 
d="M0 1365h1652v-348h-607v-1017h-437v1017h-608v348z" />
    <glyph glyph-name="U" unicode="U" horiz-adv-x="1952" 
d="M89 1365h416v-627q3 -216 15 -273q20 -97 136 -114q106 -16 321 -16q222 0 312 13q131 20 146 150q12 105 12 240v627h416v-627q-7 -328 -21 -429q-25 -170 -164 -251q-103 -59 -346 -72q-112 -6 -350 -6q-351 0 -499 20q-112 15 -178 41.5t-112 75.5q-63 67 -81 168
q-20 115 -21 278l-2 175v627z" />
    <glyph glyph-name="V" unicode="V" horiz-adv-x="1926" 
d="M-27 1365h457l498 -1022h78l493 1022h454l-666 -1365h-639z" />
    <glyph glyph-name="W" unicode="W" horiz-adv-x="2822" 
d="M-27 1365h424l366 -1022h77l309 1022h502l311 -1022h78l368 1022h441l-531 -1365h-642l-274 1001l-271 -1001h-644z" />
    <glyph glyph-name="X" unicode="X" horiz-adv-x="2048" 
d="M39 1365h569l421 -479l424 479h576l-657 -675l689 -690h-585l-447 491l-444 -491h-599l698 690z" />
    <glyph glyph-name="Y" unicode="Y" horiz-adv-x="1878" 
d="M-41 1365h547l445 -547l426 547h542l-747 -882v-483h-430v483z" />
    <glyph glyph-name="Z" unicode="Z" horiz-adv-x="1772" 
d="M63 1365h1638v-313l-1000 -724l1030 13v-341h-1690v319l987 718l-965 -13v341z" />
    <glyph glyph-name="bracketleft" unicode="[" horiz-adv-x="804" 
d="M96 1393h635v-256h-270v-990h270v-256h-635v1502z" />
    <glyph glyph-name="backslash" unicode="\" horiz-adv-x="1254" 
d="M-68 1661h261l1129 -1957h-260z" />
    <glyph glyph-name="bracketright" unicode="]" horiz-adv-x="804" 
d="M708 1393v-1502h-635v256h270v990h-270v256h635z" />
    <glyph glyph-name="asciicircum" unicode="^" 
d="M356 688h-345l283 688h436l283 -688h-344l-156 421z" />
    <glyph glyph-name="underscore" unicode="_" 
d="M0 -82h1024v-246h-1024v246z" />
    <glyph glyph-name="grave" unicode="`" 
d="M299 1593l420 -420l-91 -117l-514 290z" />
    <glyph glyph-name="a" unicode="a" horiz-adv-x="1433" 
d="M451 665h-361q7 113 48 171q61 87 167 118q140 41 489 41q270 0 365 -26q87 -23 144 -105q55 -78 55 -281v-583h-348v132h-17q-40 -84 -127 -122q-52 -23 -148 -30q-76 -5 -247 -5q-190 0 -271 32q-97 39 -129 128q-20 57 -20 141q0 169 83 244q91 81 288 90q115 5 294 5
q128 0 189 -22q39 -15 75 -54h16v51q0 98 -28 128q-30 33 -111 41q-32 3 -104 3q-217 0 -259 -20q-35 -16 -43 -77zM693 409q-183 0 -227 -22q-53 -26 -53 -81q0 -65 68 -84q54 -15 183 -15q168 0 240 17q85 20 85 93q0 58 -59 80q-31 12 -237 12z" />
    <glyph glyph-name="b" unicode="b" horiz-adv-x="1502" 
d="M82 1365h362v-526h16q40 67 90 97q50 31 123 44.5t192 13.5q208 0 334 -31q159 -40 212 -171q27 -68 32 -143q5 -71 5 -162q0 -177 -19 -253q-41 -163 -185 -216q-118 -43 -369 -43q-253 0 -349 58q-43 26 -83 94h-20v-127h-341v1365zM763 721q-183 0 -247 -34
q-46 -25 -61 -77q-11 -41 -11 -137q0 -113 27 -154q26 -37 98.5 -54t204.5 -17q190 0 253 40q38 25 50 80q9 41 9 133q0 105 -26 146q-25 39 -95.5 56.5t-201.5 17.5z" />
    <glyph glyph-name="c" unicode="c" horiz-adv-x="1432" 
d="M1012 389h369q-4 -111 -22 -175q-19 -70 -71 -123t-124 -76q-92 -28 -204 -34q-122 -6 -264 -6q-268 0 -396 34q-151 39 -201 152q-44 98 -44 331q0 216 44 313q53 117 197 155q131 34 421 34q299 0 439 -40q144 -40 191 -158q30 -76 35 -221h-369q-7 66 -41 94
q-62 52 -256 52q-161 0 -225 -30q-42 -21 -59 -72q-15 -49 -15 -140q0 -109 25 -153q28 -49 121 -66q63 -12 158 -12q197 0 252 50q30 28 39 91z" />
    <glyph glyph-name="d" unicode="d" horiz-adv-x="1501" 
d="M1419 1365v-1365h-341v127h-20q-38 -66 -84 -93q-100 -59 -341 -59q-235 0 -357 36q-66 20 -117 67.5t-71 109.5q-33 97 -33 303q0 124 12.5 200t42.5 134q56 108 200 143q105 26 306 26q188 0 258 -20q110 -32 168 -135h15v526h362zM748 721q-195 0 -258 -32
q-45 -24 -61 -80q-12 -41 -12 -122q0 -107 21 -155q26 -60 136 -75q64 -9 157 -9q200 0 268 42q38 23 51 80q9 39 9 113q0 119 -27 165q-28 46 -117 62q-60 11 -167 11z" />
    <glyph glyph-name="e" unicode="e" horiz-adv-x="1420" 
d="M997 310h361q-15 -158 -96 -227q-74 -64 -220 -88q-119 -20 -360 -20q-259 0 -390 36q-143 39 -195 157q-30 67 -36 140q-6 74 -6 172q0 196 25 274q47 154 206 203q120 37 431 37q242 0 341 -17q110 -19 174 -63t95 -123q39 -97 39 -272q0 -36 -2 -113h-947
q0 -71 10 -106q18 -62 95 -78q72 -15 186 -15q152 0 220 17q57 13 69 86zM1002 604q-1 47 -5 67q-10 60 -72 78q-68 20 -203 20q-212 0 -261 -45q-41 -37 -44 -120h585z" />
    <glyph glyph-name="f" unicode="f" horiz-adv-x="891" 
d="M0 710v259h187q5 148 23 213q23 87 111 144q66 44 183 56q66 7 191 7q86 0 182 -5v-239q-70 2 -98 2q-149 0 -194 -41q-28 -26 -34 -89q-1 -12 -2 -48h356v-259h-356v-710h-362v710h-187z" />
    <glyph glyph-name="g" unicode="g" horiz-adv-x="1496" 
d="M1080 969h341v-891q0 -143 -12 -199q-39 -188 -198 -258q-139 -62 -500 -62q-264 0 -391 34q-218 59 -241 319h369l3 -10q9 -29 18 -40q26 -31 97 -43q48 -8 150 -8q179 0 248 26q72 27 88 103q8 40 8 138v85h-14q-45 -71 -99 -101q-60 -32 -133 -41q-76 -9 -168 -9
q-202 0 -305 21q-177 37 -241 163q-45 88 -45 321q0 224 57 314q74 119 263 147q107 16 275 16q216 0 307 -46q56 -29 106 -106h17v127zM747 721q-200 0 -264 -36q-42 -24 -55 -73q-11 -39 -11 -115q0 -99 28 -141q33 -49 137 -63q64 -8 151 -8q206 0 269 44q38 26 49 77
q7 31 7 98q0 101 -23 141q-26 47 -113 63q-65 13 -175 13z" />
    <glyph glyph-name="h" unicode="h" horiz-adv-x="1470" 
d="M82 1365h362v-544h16q32 67 84 101q106 72 322 72q201 0 314 -46q60 -25 109.5 -77t71.5 -114q29 -81 32 -180q1 -45 1 -105v-472h-362v472q0 83 -9 126q-15 80 -93 104q-65 19 -178 19q-191 0 -253 -62q-41 -41 -51 -133q-4 -35 -4 -112v-414h-362v1365z" />
    <glyph glyph-name="i" unicode="i" horiz-adv-x="526" 
d="M82 969h362v-969h-362v969zM82 1365h362v-272h-362v272z" />
    <glyph glyph-name="j" unicode="j" horiz-adv-x="575" 
d="M132 969h362v-910q0 -113 -3 -151q-6 -89 -33.5 -141.5t-85.5 -85.5q-83 -49 -286 -49q-58 0 -113 4v248q31 -2 50 -2q88 0 102 75q7 39 7 155v857zM132 1365h362v-273h-362v273z" />
    <glyph glyph-name="k" unicode="k" horiz-adv-x="1365" 
d="M82 1365h362v-714h78l332 318h486l-503 -453l569 -516h-480l-390 388h-92v-388h-362v1365z" />
    <glyph glyph-name="l" unicode="l" horiz-adv-x="526" 
d="M82 1365h362v-1365h-362v1365z" />
    <glyph glyph-name="m" unicode="m" horiz-adv-x="2272" 
d="M82 969h341v-145h18q78 170 393 170q224 0 342 -86q55 -40 98 -117q29 72 77 112q57 48 137 69.5t204 21.5q197 0 308 -54q60 -30 106 -83t64 -113q27 -89 27 -291v-453h-362v453q0 112 -10 158q-23 110 -235 110q-159 0 -215 -61q-41 -44 -50 -139q-4 -43 -4 -121v-400
h-362v453q0 111 -7 150q-14 74 -86 99q-56 19 -146 19q-163 0 -222 -59q-40 -40 -50 -136q-4 -42 -4 -126v-400h-362v969z" />
    <glyph glyph-name="n" unicode="n" horiz-adv-x="1472" 
d="M82 969h341v-148h19q35 68 88 104q103 69 323 69q214 0 326 -45q61 -25 112 -77.5t73 -113.5q30 -83 32 -186q1 -49 1 -132v-440h-362v440q0 117 -10 162q-16 76 -92 99q-65 20 -187 20q-188 0 -249 -64q-41 -43 -50 -137q-3 -32 -3 -133v-387h-362v969z" />
    <glyph glyph-name="o" unicode="o" horiz-adv-x="1481" 
d="M748 994q278 0 419 -30q152 -32 213 -151q34 -66 40 -140q6 -69 6 -169q0 -198 -19 -273q-41 -165 -198 -217q-119 -39 -468 -39q-308 0 -440 31q-159 37 -211 173q-24 64 -29 134q-6 86 -6 191q0 183 23 255q50 151 207 198q126 37 463 37zM740 721q-176 0 -239 -28
q-50 -23 -68 -78q-16 -47 -16 -139q0 -102 19 -142q27 -55 125 -74q66 -12 183 -12q191 0 253 37q42 25 56 77q11 41 11 126q0 111 -25 154q-28 50 -125 67q-68 12 -174 12z" />
    <glyph glyph-name="p" unicode="p" horiz-adv-x="1503" 
d="M82 -403v1372h341v-131h20q34 66 84 95q67 39 150 49q94 12 207 12q231 0 356 -42q136 -46 178 -173q30 -92 30 -300q0 -181 -24 -263q-45 -156 -193 -204q-112 -37 -360 -37q-163 0 -239 22q-112 31 -171 128h-17v-528h-362zM771 721q-221 0 -274 -46t-53 -204
q0 -87 18 -130q25 -60 113 -78q73 -15 192 -15q200 0 260 40q39 26 51 83q8 41 8 132q0 86 -15 124q-27 64 -127 83q-57 11 -173 11z" />
    <glyph glyph-name="q" unicode="q" horiz-adv-x="1502" 
d="M1420 -403h-362v528h-16q-44 -66 -91 -95q-57 -35 -132 -45q-82 -10 -183 -10q-232 0 -349 31q-73 20 -126.5 68t-74.5 113q-31 96 -31 279q0 216 37 322q46 134 198 174q123 32 350 32q241 0 335 -60q41 -27 85 -96h19v131h341v-1372zM725 721q-195 0 -253 -43
q-34 -25 -46 -84q-9 -46 -9 -131q0 -81 14 -119q24 -61 118 -82q67 -14 186 -14q204 0 265 42q39 27 51 87q7 38 7 110q0 97 -17 138q-27 65 -126 84q-65 12 -190 12z" />
    <glyph glyph-name="r" unicode="r" horiz-adv-x="1220" 
d="M82 969h341v-146h18q41 74 99 111q95 60 275 60q240 0 325 -109q67 -85 67 -268q0 -24 -2 -79h-341q0 85 -18 119q-35 64 -173 64q-129 0 -183 -70q-34 -44 -43 -136q-3 -35 -3 -113v-402h-362v969z" />
    <glyph glyph-name="s" unicode="s" horiz-adv-x="1440" 
d="M51 308h369q4 -47 37 -69q57 -39 263 -39q204 0 258 24q48 21 48 66q0 50 -61 67q-28 7 -309 11q-262 0 -323 9q-170 23 -230 111q-45 66 -45 176q0 216 158 281q119 49 510 49q273 0 401 -26q70 -14 120.5 -52.5t68.5 -91.5q16 -46 22 -129h-369q-10 36 -25 46
q-45 28 -228 28q-188 0 -249 -21q-47 -16 -47 -58q0 -59 87 -65q68 -5 494 -8q204 -1 295 -69q92 -67 92 -233q0 -127 -48 -199q-32 -49 -88 -76.5t-154 -42.5q-137 -22 -401 -22q-287 0 -415 27q-81 18 -137.5 66.5t-77.5 118.5q-14 50 -16 121z" />
    <glyph glyph-name="t" unicode="t" horiz-adv-x="1186" 
d="M191 1192h362v-223h573v-259h-573v-282q0 -114 16 -143q27 -50 128 -50q105 0 130 48q13 24 14 75v57h331q-2 -130 -16 -195q-14 -68 -57.5 -122t-104.5 -79q-69 -29 -147 -36q-83 -8 -180 -8q-205 0 -298 30q-64 21 -109 69.5t-57 110.5q-12 61 -12 243v282h-191v259
h191v223z" />
    <glyph glyph-name="u" unicode="u" horiz-adv-x="1469" 
d="M1387 0h-341v145h-18q-34 -73 -92 -108q-104 -62 -323 -62q-206 0 -320 46q-62 25 -112 77t-73 113q-28 78 -31 171q-2 55 -2 144v443h362v-443q0 -111 12 -161q20 -78 102 -101q56 -16 171 -16q176 0 239 54q49 42 59 137q5 42 5 140v390h362v-969z" />
    <glyph glyph-name="v" unicode="v" horiz-adv-x="1369" 
d="M-27 969h412l301 -688l299 688h411l-477 -969h-468z" />
    <glyph glyph-name="w" unicode="w" horiz-adv-x="2039" 
d="M-20 969h383l222 -704l257 704h343l262 -693l226 693h387l-361 -969h-491l-191 570l-195 -570h-483z" />
    <glyph glyph-name="x" unicode="x" horiz-adv-x="1401" 
d="M13 969h488l183 -258h15l195 258h467l-390 -449l430 -520h-466l-230 328h-18l-239 -328h-448l416 501z" />
    <glyph glyph-name="y" unicode="y" horiz-adv-x="1329" 
d="M-27 969h398l276 -704l308 704h401l-516 -1094q-73 -153 -96 -189q-53 -81 -160 -105q-73 -17 -168 -17q-125 0 -164 5v250q22 1 81 1q110 -1 156 57q33 43 63 123h-147z" />
    <glyph glyph-name="z" unicode="z" horiz-adv-x="1246" 
d="M77 969h1115v-277l-599 -439h619v-253h-1178v251l622 472h-579v246z" />
    <glyph glyph-name="braceleft" unicode="{" horiz-adv-x="804" 
d="M747 1411v-255q-87 -2 -133 -24q-44 -22 -62 -71q-15 -44 -15 -122q-1 -127 -6 -154q-18 -109 -163 -127v-19q104 -14 136 -59q25 -28 29 -113q3 -45 4 -119q3 -106 27 -143q40 -69 183 -74v-259q-216 0 -287 10q-127 20 -190 87q-38 41 -57 92t-29 138q-4 51 -11 223
q-5 78 -50 93q-21 8 -68 9v249q79 5 100 23q23 20 24 130q1 144 18 233q36 174 192 221q86 26 196 29q67 2 162 2z" />
    <glyph glyph-name="bar" unicode="|" 
d="M313 1365h398v-1706h-398v1706z" />
    <glyph glyph-name="braceright" unicode="}" horiz-adv-x="804" 
d="M57 1411q204 0 281 -13t125.5 -37t82.5 -68q59 -76 73 -221q5 -54 6 -146q1 -110 24 -130q21 -18 100 -23v-249q-76 -1 -98 -29q-17 -18 -20 -73l-5 -147q-5 -116 -26 -187t-66 -119q-72 -79 -245 -93q-72 -4 -232 -4v259q97 3 141 32q39 24 54 70q13 40 15 115
q3 136 9 166q10 55 40 83q40 31 120 42v19q-106 13 -143 71q-21 31 -24 95q-1 36 -2 115q-1 111 -30 152q-40 62 -180 65v255z" />
    <glyph glyph-name="asciitilde" unicode="~" horiz-adv-x="1365" 
d="M376 1096l-188 159q42 111 91 179q94 130 228 130q55 0 153 -36q57 -21 123 -46q60 -23 92 -23q49 0 84 50q14 19 37 61l188 -159q-53 -130 -100 -191q-93 -121 -222 -121q-42 0 -113 26q-98 35 -146 53q-74 29 -107 29q-45 0 -77 -42q-20 -25 -43 -69z" />
    <glyph glyph-name="Adieresis" unicode="&#xc4;" horiz-adv-x="2016" 
d="M1578 0l-117 231h-903l-117 -231h-475l724 1365h646l714 -1365h-472zM1315 530l-263 517h-83l-263 -517h609zM503 1868h396v-295h-396v295zM1117 1868h396v-295h-396v295z" />
    <glyph glyph-name="Amacron" horiz-adv-x="2016" 
d="M1578 0l-117 231h-903l-117 -231h-475l724 1365h646l714 -1365h-472zM1315 530l-263 517h-83l-263 -517h609zM551 1832h916v-224h-916v224z" />
    <glyph glyph-name="amacron" horiz-adv-x="1433" 
d="M451 665h-361q7 113 48 171q61 87 167 118q140 41 489 41q270 0 365 -26q87 -23 144 -105q55 -78 55 -281v-583h-348v132h-17q-40 -84 -127 -122q-52 -23 -148 -30q-76 -5 -247 -5q-190 0 -271 32q-97 39 -129 128q-20 57 -20 141q0 169 83 244q91 81 288 90q115 5 294 5
q128 0 189 -22q39 -15 75 -54h16v51q0 98 -28 128q-30 33 -111 41q-32 3 -104 3q-217 0 -259 -20q-35 -16 -43 -77zM693 409q-183 0 -227 -22q-53 -26 -53 -81q0 -65 68 -84q54 -15 183 -15q168 0 240 17q85 20 85 93q0 58 -59 80q-31 12 -237 12zM286 1402h889v-210h-889
v210z" />
    <glyph glyph-name="Eacute" unicode="&#xc9;" horiz-adv-x="1650" 
d="M96 1365h1512v-321h-1102v-197h1046v-300h-1046v-219h1110v-328h-1520v1365zM1138 1982l159 -320l-582 -203l-85 161z" />
    <glyph glyph-name="Aogonek" unicode="&#xa5;" horiz-adv-x="2016" 
d="M2050 0l-169 -161q-49 -46 -49 -96q0 -82 115 -82h107v-170h-169q-127 0 -201 61q-52 46 -51 120v62q0 100 72 154l152 112h-279l-117 231h-903l-117 -231h-475l724 1365h646zM1315 530l-263 517h-83l-263 -517h609z" />
    <glyph glyph-name="Odieresis" unicode="&#xd6;" horiz-adv-x="2012" 
d="M1018 1385q430 0 596 -22q239 -32 293 -227q37 -134 37 -454q0 -319 -37 -453q-54 -195 -293 -227q-165 -22 -608 -22q-442 0 -608 22q-239 32 -293 227q-37 134 -37 453q0 321 37 454q54 195 293 227q167 22 620 22zM990 1030q-313 0 -380 -17q-81 -21 -104 -95
q-22 -73 -22 -269q0 -127 13 -183q25 -104 151 -119q93 -12 358 -12t358 12q126 15 150 119q14 57 14 177q0 147 -8 209q-14 103 -64 137q-45 32 -189 39q-52 2 -277 2zM501 1868h396v-295h-396v295zM1115 1868h396v-295h-396v295z" />
    <glyph glyph-name="Udieresis" unicode="&#xdc;" horiz-adv-x="1952" 
d="M89 1365h416v-627q3 -216 15 -273q20 -97 136 -114q106 -16 321 -16q222 0 312 13q131 20 146 150q12 105 12 240v627h416v-627q-7 -328 -21 -429q-25 -170 -164 -251q-103 -59 -346 -72q-112 -6 -350 -6q-351 0 -499 20q-112 15 -178 41.5t-112 75.5q-63 67 -81 168
q-20 115 -21 278l-2 175v627zM471 1868h396v-295h-396v295zM1085 1868h396v-295h-396v295z" />
    <glyph glyph-name="aacute" unicode="&#xe1;" horiz-adv-x="1433" 
d="M451 665h-361q7 113 48 171q61 87 167 118q140 41 489 41q270 0 365 -26q87 -23 144 -105q55 -78 55 -281v-583h-348v132h-17q-40 -84 -127 -122q-52 -23 -148 -30q-76 -5 -247 -5q-190 0 -271 32q-97 39 -129 128q-20 57 -20 141q0 169 83 244q91 81 288 90q115 5 294 5
q128 0 189 -22q39 -15 75 -54h16v51q0 98 -28 128q-30 33 -111 41q-32 3 -104 3q-217 0 -259 -20q-35 -16 -43 -77zM693 409q-183 0 -227 -22q-53 -26 -53 -81q0 -65 68 -84q54 -15 183 -15q168 0 240 17q85 20 85 93q0 58 -59 80q-31 12 -237 12zM528 1176l423 420
l183 -249l-511 -294z" />
    <glyph glyph-name="aogonek" unicode="&#xb9;" horiz-adv-x="1433" 
d="M1358 0l-159 -151q-46 -44 -46 -91q0 -77 107 -77h101v-160h-158q-119 0 -189 57q-48 42 -48 113v58q-1 95 68 145l143 106h-167v132h-17q-39 -83 -127 -122q-52 -23 -148 -30q-76 -5 -246 -5q-191 0 -272 32q-97 39 -129 128q-20 57 -20 141q0 169 83 244q91 81 288 90
q115 5 294 5q128 0 189 -22q39 -15 75 -54h16v51q0 99 -27 128q-31 33 -111 41q-32 3 -105 3q-217 0 -259 -20q-35 -16 -42 -77h-362q8 113 48 171q61 87 167 118q140 41 490 41q269 0 364 -26q87 -23 144 -105q55 -78 55 -281v-583zM693 409q-183 0 -227 -22
q-53 -26 -53 -81q0 -65 68 -84q55 -15 183 -15q169 0 241 17q85 20 85 93q0 58 -60 80q-30 12 -237 12z" />
    <glyph glyph-name="Ccaron" unicode="&#xc8;" horiz-adv-x="1862" 
d="M1394 527h416q4 -100 4 -137q0 -149 -47 -239q-49 -94 -187 -131q-151 -41 -522 -41q-409 0 -551 13q-132 11 -208 35t-126 70q-67 62 -85 164q-20 107 -20 412q0 293 15 395q22 153 119 222q74 52 236 74q168 22 603 22q259 0 369 -11q166 -16 242 -64q94 -59 119 -171
q18 -80 18 -185q0 -18 -1 -79h-416q-2 50 -4 68q-8 61 -55 77q-71 24 -388 24q-216 0 -298 -12q-100 -14 -124 -109q-19 -77 -19 -248q0 -176 19 -243q24 -87 132 -101q88 -11 309 -11q239 0 326 10q82 9 104 59q18 42 20 137zM1440 1778l-510 -276l-509 276l56 133
l453 -116l453 116z" />
    <glyph glyph-name="adieresis" unicode="&#xe4;" horiz-adv-x="1433" 
d="M451 665h-361q7 113 48 171q61 87 167 118q140 41 489 41q270 0 365 -26q87 -23 144 -105q55 -78 55 -281v-583h-348v132h-17q-40 -84 -127 -122q-52 -23 -148 -30q-76 -5 -247 -5q-190 0 -271 32q-97 39 -129 128q-20 57 -20 141q0 169 83 244q91 81 288 90q115 5 294 5
q128 0 189 -22q39 -15 75 -54h16v51q0 98 -28 128q-30 33 -111 41q-32 3 -104 3q-217 0 -259 -20q-35 -16 -43 -77zM693 409q-183 0 -227 -22q-53 -26 -53 -81q0 -65 68 -84q54 -15 183 -15q168 0 240 17q85 20 85 93q0 58 -59 80q-31 12 -237 12zM273 1427h382v-260h-382
v260zM792 1427h382v-260h-382v260z" />
    <glyph glyph-name="ccaron" unicode="&#xe8;" horiz-adv-x="1432" 
d="M1012 389h369q-4 -111 -22 -175q-19 -70 -71 -123t-124 -76q-92 -28 -204 -34q-122 -6 -264 -6q-268 0 -396 34q-151 39 -201 152q-44 98 -44 331q0 216 44 313q53 117 197 155q131 34 421 34q299 0 439 -40q144 -40 191 -158q30 -76 35 -221h-369q-7 66 -41 94
q-62 52 -256 52q-161 0 -225 -30q-42 -21 -59 -72q-15 -49 -15 -140q0 -109 25 -153q28 -49 121 -66q63 -12 158 -12q197 0 252 50q30 28 39 91zM1206 1374l-482 -296l-482 296l56 120l426 -151l426 151z" />
    <glyph glyph-name="Cacute" unicode="&#xc6;" horiz-adv-x="1862" 
d="M1394 527h416q4 -100 4 -137q0 -149 -47 -239q-49 -94 -187 -131q-151 -41 -522 -41q-409 0 -551 13q-132 11 -208 35t-126 70q-67 62 -85 164q-20 107 -20 412q0 293 15 395q22 153 119 222q74 52 236 74q168 22 603 22q259 0 369 -11q166 -16 242 -64q94 -59 119 -171
q18 -80 18 -185q0 -18 -1 -79h-416q-2 50 -4 68q-8 61 -55 77q-71 24 -388 24q-216 0 -298 -12q-100 -14 -124 -109q-19 -77 -19 -248q0 -176 19 -243q24 -87 132 -101q88 -11 309 -11q239 0 326 10q82 9 104 59q18 42 20 137zM1223 1982l159 -320l-582 -203l-85 161z" />
    <glyph glyph-name="cacute" unicode="&#xe6;" horiz-adv-x="1432" 
d="M1012 389h369q-4 -111 -22 -175q-19 -70 -71 -123t-124 -76q-92 -28 -204 -34q-122 -6 -264 -6q-268 0 -396 34q-151 39 -201 152q-44 98 -44 331q0 216 44 313q53 117 197 155q131 34 421 34q299 0 439 -40q144 -40 191 -158q30 -76 35 -221h-369q-7 66 -41 94
q-62 52 -256 52q-161 0 -225 -30q-42 -21 -59 -72q-15 -49 -15 -140q0 -109 25 -153q28 -49 121 -66q63 -12 158 -12q197 0 252 50q30 28 39 91zM508 1176l423 420l183 -249l-511 -294z" />
    <glyph glyph-name="eacute" unicode="&#xe9;" horiz-adv-x="1420" 
d="M997 310h361q-15 -158 -96 -227q-74 -64 -220 -88q-119 -20 -360 -20q-259 0 -390 36q-143 39 -195 157q-30 67 -36 140q-6 74 -6 172q0 196 25 274q47 154 206 203q120 37 431 37q242 0 341 -17q110 -19 174 -63t95 -123q39 -97 39 -272q0 -36 -2 -113h-947
q0 -71 10 -106q18 -62 95 -78q72 -15 186 -15q152 0 220 17q57 13 69 86zM1002 604q-1 47 -5 67q-10 60 -72 78q-68 20 -203 20q-212 0 -261 -45q-41 -37 -44 -120h585zM508 1176l423 420l183 -249l-511 -294z" />
    <glyph glyph-name="Zacute" horiz-adv-x="1772" 
d="M63 1365h1638v-313l-1000 -724l1030 13v-341h-1690v319l987 718l-965 -13v341zM1144 1982l159 -320l-582 -203l-85 161z" />
    <glyph glyph-name="zacute" unicode="&#x178;" horiz-adv-x="1246" 
d="M77 969h1115v-277l-599 -439h619v-253h-1178v251l622 472h-579v246zM408 1176l423 420l183 -249l-511 -294z" />
    <glyph glyph-name="Dcaron" unicode="&#xcf;" horiz-adv-x="1967" 
d="M96 0v1365h985q321 0 415 -11q182 -21 268 -95q92 -80 121 -258q14 -85 14 -297q0 -271 -24 -377q-33 -144 -108 -212q-51 -47 -124 -71t-197 -35q-98 -9 -364 -9h-986zM506 348h579q176 0 263 14q97 16 122 107q19 66 19 208q0 152 -20 223q-24 89 -110 108
q-68 16 -278 16h-575v-676zM1453 1778l-510 -276l-509 276l56 133l453 -116l453 116z" />
    <glyph glyph-name="iacute" unicode="&#xed;" horiz-adv-x="526" 
d="M82 969h362v-969h-362v969zM86 1131l333 472l217 -206l-438 -367z" />
    <glyph glyph-name="dcaron" unicode="&#xef;" horiz-adv-x="1964" 
d="M1419 1365v-1365h-341v127h-20q-38 -66 -84 -93q-100 -59 -341 -59q-235 0 -357 36q-66 20 -117 67.5t-71 109.5q-33 97 -33 303q0 124 12.5 200t42.5 134q56 108 200 143q105 26 306 26q188 0 258 -20q110 -32 168 -135h15v526h362zM748 721q-195 0 -258 -32
q-45 -24 -61 -80q-12 -41 -12 -122q0 -107 21 -155q26 -60 136 -75q64 -9 157 -9q200 0 268 42q38 23 51 80q9 39 9 113q0 119 -27 165q-28 46 -117 62q-60 11 -167 11zM1579 1365h338v-263q0 -106 -12 -164q-8 -41 -36.5 -72.5t-66.5 -41.5q-58 -16 -189 -16q-24 0 -73 1
v129h32h30q67 1 87 30q16 22 16 58v39h-126v300z" />
    <glyph glyph-name="Emacron" horiz-adv-x="1650" 
d="M96 1365h1512v-321h-1102v-197h1046v-300h-1046v-219h1110v-328h-1520v1365zM396 1832h916v-224h-916v224z" />
    <glyph glyph-name="emacron" horiz-adv-x="1420" 
d="M997 310h361q-15 -158 -96 -227q-74 -64 -220 -88q-119 -20 -360 -20q-259 0 -390 36q-143 39 -195 157q-30 67 -36 140q-6 74 -6 172q0 196 25 274q47 154 206 203q120 37 431 37q242 0 341 -17q110 -19 174 -63t95 -123q39 -97 39 -272q0 -36 -2 -113h-947
q0 -71 10 -106q18 -62 95 -78q72 -15 186 -15q152 0 220 17q57 13 69 86zM1002 604q-1 47 -5 67q-10 60 -72 78q-68 20 -203 20q-212 0 -261 -45q-41 -37 -44 -120h585zM273 1402h889v-210h-889v210z" />
    <glyph glyph-name="Edotaccent" horiz-adv-x="1650" 
d="M96 1365h1512v-321h-1102v-197h1046v-300h-1046v-219h1110v-328h-1520v1365zM656 1871h407v-302h-407v302z" />
    <glyph glyph-name="oacute" unicode="&#xf3;" horiz-adv-x="1481" 
d="M748 994q278 0 419 -30q152 -32 213 -151q34 -66 40 -140q6 -69 6 -169q0 -198 -19 -273q-41 -165 -198 -217q-119 -39 -468 -39q-308 0 -440 31q-159 37 -211 173q-24 64 -29 134q-6 86 -6 191q0 183 23 255q50 151 207 198q126 37 463 37zM740 721q-176 0 -239 -28
q-50 -23 -68 -78q-16 -47 -16 -139q0 -102 19 -142q27 -55 125 -74q66 -12 183 -12q191 0 253 37q42 25 56 77q11 41 11 126q0 111 -25 154q-28 50 -125 67q-68 12 -174 12zM539 1176l423 420l183 -249l-511 -294z" />
    <glyph glyph-name="edotaccent" horiz-adv-x="1420" 
d="M997 310h361q-15 -158 -96 -227q-74 -64 -220 -88q-119 -20 -360 -20q-259 0 -390 36q-143 39 -195 157q-30 67 -36 140q-6 74 -6 172q0 196 25 274q47 154 206 203q120 37 431 37q242 0 341 -17q110 -19 174 -63t95 -123q39 -97 39 -272q0 -36 -2 -113h-947
q0 -71 10 -106q18 -62 95 -78q72 -15 186 -15q152 0 220 17q57 13 69 86zM1002 604q-1 47 -5 67q-10 60 -72 78q-68 20 -203 20q-212 0 -261 -45q-41 -37 -44 -120h585zM529 1430h390v-267h-390v267z" />
    <glyph glyph-name="ocircumflex" unicode="&#xf4;" horiz-adv-x="1481" 
d="M748 994q278 0 419 -30q152 -32 213 -151q34 -66 40 -140q6 -69 6 -169q0 -198 -19 -273q-41 -165 -198 -217q-119 -39 -468 -39q-308 0 -440 31q-159 37 -211 173q-24 64 -29 134q-6 86 -6 191q0 183 23 255q50 151 207 198q126 37 463 37zM740 721q-176 0 -239 -28
q-50 -23 -68 -78q-16 -47 -16 -139q0 -102 19 -142q27 -55 125 -74q66 -12 183 -12q191 0 253 37q42 25 56 77q11 41 11 126q0 111 -25 154q-28 50 -125 67q-68 12 -174 12zM259 1220l482 296l482 -296l-56 -120l-426 151l-426 -151z" />
    <glyph glyph-name="odieresis" unicode="&#xf6;" horiz-adv-x="1481" 
d="M748 994q278 0 419 -30q152 -32 213 -151q34 -66 40 -140q6 -69 6 -169q0 -198 -19 -273q-41 -165 -198 -217q-119 -39 -468 -39q-308 0 -440 31q-159 37 -211 173q-24 64 -29 134q-6 86 -6 191q0 183 23 255q50 151 207 198q126 37 463 37zM740 721q-176 0 -239 -28
q-50 -23 -68 -78q-16 -47 -16 -139q0 -102 19 -142q27 -55 125 -74q66 -12 183 -12q191 0 253 37q42 25 56 77q11 41 11 126q0 111 -25 154q-28 50 -125 67q-68 12 -174 12zM290 1427h382v-260h-382v260zM809 1427h382v-260h-382v260z" />
    <glyph glyph-name="otilde" horiz-adv-x="1481" 
d="M748 994q278 0 419 -30q152 -32 213 -151q34 -66 40 -140q6 -69 6 -169q0 -198 -19 -273q-41 -165 -198 -217q-119 -39 -468 -39q-308 0 -440 31q-159 37 -211 173q-24 64 -29 134q-6 86 -6 191q0 183 23 255q50 151 207 198q126 37 463 37zM740 721q-176 0 -239 -28
q-50 -23 -68 -78q-16 -47 -16 -139q0 -102 19 -142q27 -55 125 -74q66 -12 183 -12q191 0 253 37q42 25 56 77q11 41 11 126q0 111 -25 154q-28 50 -125 67q-68 12 -174 12zM1031 1441h181q-1 -158 -36 -222q-51 -92 -145 -92q-88 0 -276 70q-180 66 -233 66q-46 0 -62 -41
q-9 -23 -10 -69h-181q2 152 44 218q59 96 169 96q58 0 145 -28q29 -10 141 -51q158 -57 206 -57q41 0 52 40q4 18 5 70z" />
    <glyph glyph-name="uacute" unicode="&#xfa;" horiz-adv-x="1469" 
d="M1387 0h-341v145h-18q-34 -73 -92 -108q-104 -62 -323 -62q-206 0 -320 46q-62 25 -112 77t-73 113q-28 78 -31 171q-2 55 -2 144v443h362v-443q0 -111 12 -161q20 -78 102 -101q56 -16 171 -16q176 0 239 54q49 42 59 137q5 42 5 140v390h362v-969zM519 1176l423 420
l183 -249l-511 -294z" />
    <glyph glyph-name="Ecaron" unicode="&#xcc;" horiz-adv-x="1650" 
d="M96 1365h1512v-321h-1102v-197h1046v-300h-1046v-219h1110v-328h-1520v1365zM1376 1778l-510 -276l-509 276l56 133l453 -116l453 116z" />
    <glyph glyph-name="ecaron" unicode="&#xec;" horiz-adv-x="1420" 
d="M997 310h361q-15 -158 -96 -227q-74 -64 -220 -88q-119 -20 -360 -20q-259 0 -390 36q-143 39 -195 157q-30 67 -36 140q-6 74 -6 172q0 196 25 274q47 154 206 203q120 37 431 37q242 0 341 -17q110 -19 174 -63t95 -123q39 -97 39 -272q0 -36 -2 -113h-947
q0 -71 10 -106q18 -62 95 -78q72 -15 186 -15q152 0 220 17q57 13 69 86zM1002 604q-1 47 -5 67q-10 60 -72 78q-68 20 -203 20q-212 0 -261 -45q-41 -37 -44 -120h585zM1206 1374l-482 -296l-482 296l56 120l426 -151l426 151z" />
    <glyph glyph-name="udieresis" unicode="&#xfc;" horiz-adv-x="1469" 
d="M1387 0h-341v145h-18q-34 -73 -92 -108q-104 -62 -323 -62q-206 0 -320 46q-62 25 -112 77t-73 113q-28 78 -31 171q-2 55 -2 144v443h362v-443q0 -111 12 -161q20 -78 102 -101q56 -16 171 -16q176 0 239 54q49 42 59 137q5 42 5 140v390h362v-969zM284 1427h382v-260
h-382v260zM803 1427h382v-260h-382v260z" />
    <glyph glyph-name="dagger" unicode="&#x2020;" horiz-adv-x="1857" 
d="M715 -191v1058h-526v280h526v437h410v-437h525v-280h-525v-1058h-410z" />
    <glyph glyph-name="degree" unicode="&#xb0;" 
d="M545 1369q199 0 270 -41q47 -29 61 -88q11 -50 11 -181q0 -153 -21 -198q-32 -71 -143 -90q-76 -13 -242 -13q-196 0 -261 34q-57 30 -73 99q-11 44 -11 177q0 160 26 208q37 66 152 82q79 11 231 11zM498 1206q-83 0 -116 -18q-25 -14 -34 -40q-10 -29 -10 -84
q0 -76 16 -103q18 -31 66 -36q32 -3 87 -3q113 0 141 21q21 17 28 46q6 23 6 88q0 62 -16 86q-22 32 -70 38q-48 5 -98 5z" />
    <glyph glyph-name="Eogonek" unicode="&#xca;" horiz-adv-x="1650" 
d="M1616 0l-169 -161q-49 -46 -49 -96q0 -82 114 -82h108v-170h-169q-127 0 -201 61q-51 45 -51 120v62q0 100 72 154l152 112h-1327v1365h1512v-321h-1102v-197h1046v-300h-1046v-219h1110v-328z" />
    <glyph glyph-name="sterling" horiz-adv-x="1857" 
d="M54 764h222v76q0 193 14 270q19 101 72 159.5t148 83.5q112 29 493 29q317 0 458 -16q159 -18 231 -68q113 -79 113 -279q0 -39 -5 -125h-389q0 96 -24 125q-28 33 -132 43q-71 6 -163 6q-246 0 -316 -13q-73 -14 -87 -86q-9 -42 -9 -129v-76h569v-251h-569v-15
q-2 -66 -24 -99q-27 -45 -85 -75h1259v-324h-1703v317q57 2 81 9q36 11 52 48.5t16 109.5v29h-222v251z" />
    <glyph glyph-name="section" unicode="&#xa7;" horiz-adv-x="1857" 
d="M1576 1167h-351q-1 62 -6 87q-11 50 -71 60q-54 10 -238 10q-199 0 -239 -14q-53 -17 -53 -79q0 -44 24 -62q26 -19 110 -30l542 -70q123 -15 187 -40q97 -38 133 -140q22 -62 22 -170q0 -135 -29 -205q-20 -46 -81 -77q57 -24 77 -55q37 -57 37 -179q0 -130 -27 -210
q-44 -131 -221 -175q-83 -20 -186 -25q-136 -7 -340 -7q-237 0 -334 19q-147 30 -209 113q-55 74 -64 228q-2 40 -2 103h334q3 -57 10 -85q15 -65 94 -81q52 -11 257 -11q216 0 268 19q33 12 44 40q7 19 7 54q0 61 -42 82q-26 12 -97 22l-656 86q-104 14 -152 40
q-74 39 -95 133q-11 51 -11 152q0 157 45 216q28 36 84 55q-55 43 -75 96q-21 55 -21 183q0 149 52 220q74 102 296 125q122 13 428 13q165 0 245 -11q168 -23 243 -117q62 -78 62 -229q0 -31 -1 -84zM676 621l508 -63q50 -6 72 -6q87 0 87 138q0 65 -33 89q-31 23 -141 36
l-442 52q-77 9 -89 9q-94 0 -94 -135q0 -53 18 -78q16 -23 49 -31q24 -6 65 -11z" />
    <glyph glyph-name="bullet" unicode="&#x2022;" horiz-adv-x="1365" 
d="M689 978q113 0 196 -83q84 -83 84 -201t-84 -201q-82 -83 -200 -83t-200 83q-84 83 -84 200q0 121 84 202q85 83 204 83z" />
    <glyph glyph-name="paragraph" unicode="&#xb6;" horiz-adv-x="1857" 
d="M1574 1577v-1761h-246v1563h-95v-1563h-246v910h-67q-309 1 -387 11q-123 16 -195 103q-73 89 -73 315q0 176 44 266q27 56 81 93.5t120 46.5q84 12 410 16h654z" />
    <glyph glyph-name="germandbls" unicode="&#xdf;" horiz-adv-x="1546" 
d="M82 0v904q0 170 29 249q36 97 142 162q87 53 249 66q104 9 299 9q206 0 297 -16q272 -47 272 -304q0 -126 -66 -190q-44 -44 -149 -67q93 -9 141.5 -24t88.5 -46q106 -83 106 -303q0 -230 -115 -340q-80 -77 -193 -101q-91 -18 -197 -18q-309 0 -402 142q-50 76 -52 255
h303q2 -64 13 -84q23 -43 122 -43q98 0 129 51q30 47 30 166q0 107 -23 153q-31 66 -129 78q-37 4 -143 4h-217v239h168q162 2 190 14q40 18 40 82q0 58 -43 79q-42 21 -216 21q-122 0 -186 -15q-105 -26 -120 -119q-6 -38 -6 -91v-913h-362z" />
    <glyph glyph-name="registered" unicode="&#xae;" horiz-adv-x="1886" 
d="M991 1386q416 0 575 -37q116 -27 177 -123q75 -118 75 -550q0 -261 -27 -412q-38 -209 -231 -251q-158 -34 -467 -34q-177 0 -382 5t-266 11q-105 10 -165.5 33.5t-107.5 73.5q-55 58 -74 138q-30 129 -30 441q0 340 47 481q54 165 252 196q185 28 624 28zM875 1238
q-324 0 -446 -24q-142 -28 -172 -157q-24 -106 -24 -362q0 -277 21 -385q24 -129 156 -155q82 -16 215 -19l329 -8q336 8 402 11.5t124 16.5q54 12 93.5 52t52.5 96q27 118 27 392q0 273 -24 378q-13 55 -56 93t-105 50q-64 12 -193.5 16.5t-399.5 4.5zM397 273v819h644
q225 0 266 -4q102 -10 149 -83q23 -36 28 -76q5 -44 5 -105q0 -129 -31 -172q-32 -46 -123 -58q57 -8 84 -21q52 -26 58 -110q2 -29 2 -105v-85h-278v53q0 109 -22 131q-15 15 -58 18q-14 0 -82 1h-359v-203h-283zM680 696h358q127 2 143 11q26 14 26 79q0 66 -30 78
q-17 7 -139 8h-358v-176z" />
    <glyph glyph-name="copyright" unicode="&#xa9;" horiz-adv-x="1886" 
d="M991 1386q416 0 575 -37q116 -27 177 -123q75 -118 75 -550q0 -261 -27 -412q-38 -209 -231 -251q-158 -34 -467 -34q-177 0 -382 5t-266 11q-105 10 -165.5 33.5t-107.5 73.5q-55 58 -74 138q-30 129 -30 441q0 340 47 481q54 165 252 196q185 28 624 28zM875 1238
q-324 0 -446 -24q-142 -28 -172 -157q-24 -106 -24 -362q0 -277 21 -385q24 -129 156 -155q82 -16 215 -19l329 -8q336 8 402 11.5t124 16.5q54 12 93.5 52t52.5 96q27 118 27 392q0 273 -24 378q-13 55 -56 93t-105 50q-64 12 -193.5 16.5t-399.5 4.5zM1218 602h283
q2 -66 2 -91q0 -91 -31 -145q-33 -58 -124 -81q-96 -24 -333 -24q-257 0 -346 7q-156 13 -216 65q-57 49 -66 170q-4 49 -4 170q0 176 10 237q18 117 120 157q96 37 497 37q287 0 365 -34q69 -30 95 -97q18 -47 18 -126q0 -18 -1 -62h-283q-2 66 -16 77q-24 21 -251 21
q-139 0 -190 -7q-56 -7 -69 -56q-12 -44 -12 -141q0 -102 11 -139q14 -45 75 -52q54 -6 202 -6q138 0 195 6q57 5 65 53q3 19 4 61z" />
    <glyph glyph-name="trademark" unicode="&#x2122;" horiz-adv-x="2716" 
d="M10 1365h1061v-224h-382v-595h-296v595h-383v224zM1166 1365h492l249 -505l249 505h489v-819h-279l6 598h-26l-324 -598h-230l-324 598h-29l6 -598h-279v819z" />
    <glyph glyph-name="eogonek" unicode="&#xea;" horiz-adv-x="1420" 
d="M1061 -2l-157 -149q-46 -44 -46 -91q0 -77 107 -77h101v-160h-159q-119 0 -188 57q-48 43 -48 113v58q0 94 68 145l114 85q-80 -4 -178 -4q-252 0 -383 36q-143 38 -195 157q-30 67 -36 140q-6 74 -6 172q0 196 25 274q47 154 206 203q120 37 431 37q242 0 341 -17
q110 -19 174 -63t95 -123q39 -97 39 -273q0 -36 -2 -112h-947q1 -71 11 -106q17 -62 95 -78q71 -15 185 -15q152 0 221 17q56 13 68 86h362q-13 -155 -97 -227q-71 -60 -201 -85zM1002 604q-1 47 -5 67q-10 60 -72 78q-68 20 -202 20q-212 0 -262 -45q-40 -37 -44 -120h585z
" />
    <glyph glyph-name="dieresis" unicode="&#xa8;" 
d="M61 1427h382v-260h-382v260zM580 1427h382v-260h-382v260z" />
    <glyph glyph-name="Dslash" unicode="&#xd0;" horiz-adv-x="1987" 
d="M116 1365h985q321 0 414 -11q182 -21 268 -95q92 -80 121 -257q14 -86 14 -297q0 -271 -24 -378q-33 -143 -108 -212q-51 -47 -124 -71t-197 -35q-97 -9 -364 -9h-985v565h-127v257h127v543zM526 348h578q176 0 263 14q97 16 123 107q18 66 18 208q0 153 -20 224
q-25 88 -110 107q-68 16 -277 16h-575v-202h604v-257h-604v-217z" />
    <glyph glyph-name="gcommaaccent" horiz-adv-x="1496" 
d="M1080 969h341v-891q0 -143 -12 -199q-39 -188 -198 -258q-139 -62 -500 -62q-264 0 -391 34q-218 59 -241 319h369l3 -10q9 -29 18 -40q26 -31 97 -43q48 -8 150 -8q179 0 248 26q72 27 88 103q8 40 8 138v85h-14q-45 -71 -99 -101q-60 -32 -133 -41q-76 -9 -168 -9
q-202 0 -305 21q-177 37 -241 163q-45 88 -45 321q0 224 57 314q74 119 263 147q107 16 275 16q216 0 307 -46q56 -29 106 -106h17v127zM747 721q-200 0 -264 -36q-42 -24 -55 -73q-11 -39 -11 -115q0 -99 28 -141q33 -49 137 -63q64 -8 151 -8q206 0 269 44q38 26 49 77
q7 31 7 98q0 101 -23 141q-26 47 -113 63q-65 13 -175 13zM845 1123h-338v263q0 106 12 164q8 41 36.5 72.5t67.5 41.5q58 16 188 16q24 0 73 -1v-129h-32h-30q-66 -1 -87 -30q-15 -23 -15 -58v-39h125v-300z" />
    <glyph glyph-name="Iogonek" horiz-adv-x="628" 
d="M533 0l-169 -161q-49 -46 -49 -96q0 -82 114 -82h107v-170h-168q-127 0 -201 61q-51 45 -51 120v62q0 99 72 154l152 112h-244v1365h437v-1365z" />
    <glyph glyph-name="iogonek" horiz-adv-x="526" 
d="M444 0l-159 -151q-46 -44 -46 -91q0 -77 107 -77h101v-160h-159q-119 0 -188 57q-48 43 -48 113v58q0 95 68 145l143 106h-181v969h362v-969zM82 1365h362v-272h-362v272z" />
    <glyph glyph-name="Imacron" horiz-adv-x="628" 
d="M95 1365h437v-1365h-437v1365zM-34 1832h698v-224h-698v224z" />
    <glyph glyph-name="lessequal" 
d="M955 1380v-368l-457 -118l457 -117v-368l-887 322v329zM955 357v-346h-887v346h887z" />
    <glyph glyph-name="greaterequal" 
d="M68 1380l887 -320v-329l-887 -322v368l457 117l-457 118v368zM68 357h887v-346h-887v346z" />
    <glyph glyph-name="imacron" horiz-adv-x="526" 
d="M82 969h362v-969h-362v969zM-45 1402h616v-210h-616v210z" />
    <glyph glyph-name="Kcommaaccent" horiz-adv-x="1942" 
d="M96 1365h416v-495h228l540 504h636l-789 -679l856 -695h-632l-611 522h-228v-522h-416v1365zM755 -109h360v-279q0 -114 -12 -175q-9 -44 -39.5 -77t-71.5 -44q-62 -17 -202 -17q-24 0 -77 1v137h35h31q71 1 93 32q16 24 16 62v41h-133v319z" />
    <glyph glyph-name="dmacron" unicode="&#xf0;" horiz-adv-x="1521" 
d="M1057 1365h362v-123h90v-162h-90v-1080h-341v127h-20q-38 -66 -84 -93q-100 -59 -341 -59q-234 0 -357 36q-66 20 -117 67.5t-71 109.5q-33 97 -33 295q0 221 55 328q56 108 200 143q105 26 307 26q188 0 257 -20q110 -32 168 -135h15v255h-436v162h436v123zM749 720
q-196 0 -258 -32q-46 -24 -62 -80q-12 -40 -12 -122q0 -106 21 -154q26 -60 136 -75q65 -9 157 -9q201 0 268 42q38 23 51 79q9 39 9 114q0 119 -27 164q-28 46 -117 62q-60 11 -166 11z" />
    <glyph glyph-name="summation" horiz-adv-x="1365" 
d="M1300 1536v-552h-336l-42 208h-434l488 -652l-485 -708h449l24 222h354v-566h-1250v395l465 656l-465 600v397h1232z" />
    <glyph glyph-name="lslash" unicode="&#xb3;" horiz-adv-x="635" 
d="M137 1365h362v-442l152 99v-224l-152 -99v-699h-362v483l-153 -99v224l153 100v657z" />
    <glyph glyph-name="Lcommaaccent" horiz-adv-x="1503" 
d="M96 1365h437v-1017h971v-348h-1408v1365zM563 -109h360v-279q0 -114 -12 -175q-9 -44 -39.5 -77t-71.5 -44q-62 -17 -202 -17q-24 0 -77 1v137h35h31q71 1 93 32q16 24 16 62v41h-133v319z" />
    <glyph glyph-name="lcommaaccent" horiz-adv-x="526" 
d="M82 1365h362v-1365h-362v1365zM96 -109h338v-263q0 -106 -12 -164q-8 -41 -36.5 -72.5t-66.5 -41.5q-58 -16 -189 -16q-24 0 -73 1v129h32h30q67 1 87 30q16 23 16 58v39h-126v300z" />
    <glyph glyph-name="Lcaron" unicode="&#xbc;" horiz-adv-x="1503" 
d="M96 1365h437v-1017h971v-348h-1408v1365zM826 1365h360v-279q0 -114 -12 -175q-9 -44 -39.5 -77t-71.5 -44q-62 -17 -202 -17q-24 0 -77 1v137h35h31q71 1 93 32q16 24 16 62v41h-133v319z" />
    <glyph glyph-name="lcaron" unicode="&#xbe;" horiz-adv-x="985" 
d="M82 1365h362v-1365h-362v1365zM599 1365h338v-263q0 -106 -12 -164q-8 -41 -36.5 -72.5t-66.5 -41.5q-58 -16 -189 -16q-24 0 -73 1v129h32h30q67 1 87 30q16 22 16 58v39h-126v300z" />
    <glyph glyph-name="Lacute" unicode="&#xc5;" horiz-adv-x="1503" 
d="M96 1365h437v-1017h971v-348h-1408v1365zM696 1982l159 -320l-582 -203l-85 161z" />
    <glyph glyph-name="lacute" unicode="&#xe5;" horiz-adv-x="526" 
d="M82 1365h362v-1365h-362v1365zM528 2008l212 -287l-539 -301l-111 144z" />
    <glyph glyph-name="Ncommaaccent" horiz-adv-x="2091" 
d="M96 1365h729l715 -1018h43l-10 1018h423v-1365h-723l-718 1019h-45l9 -1019h-423v1365zM857 -109h360v-279q0 -114 -12 -175q-9 -44 -39.5 -77t-71.5 -44q-62 -17 -202 -17q-24 0 -77 1v137h35h31q71 1 93 32q16 24 16 62v41h-133v319z" />
    <glyph glyph-name="ncommaaccent" horiz-adv-x="1472" 
d="M82 969h341v-148h19q35 68 88 104q103 69 323 69q214 0 326 -45q61 -25 112 -77.5t73 -113.5q30 -83 32 -186q1 -49 1 -132v-440h-362v440q0 117 -10 162q-16 76 -92 99q-65 20 -187 20q-188 0 -249 -64q-41 -43 -50 -137q-3 -32 -3 -133v-387h-362v969zM569 -109h338
v-263q0 -106 -12 -164q-8 -41 -36.5 -72.5t-66.5 -41.5q-58 -16 -189 -16q-24 0 -73 1v129h32h30q67 1 87 30q16 23 16 58v39h-126v300z" />
    <glyph glyph-name="Nacute" unicode="&#xd1;" horiz-adv-x="2091" 
d="M96 1365h729l715 -1018h43l-10 1018h423v-1365h-723l-718 1019h-45l9 -1019h-423v1365zM1358 1982l159 -320l-582 -203l-85 161z" />
    <glyph glyph-name="logicalnot" unicode="&#xac;" 
d="M570 0v265h-502v346h887v-611h-385z" />
    <glyph glyph-name="radical" horiz-adv-x="1365" 
d="M1365 1693v-308h-316l-322 -1385h-441l-95 481h-191v308h402l40 -180q25 -142 30 -299h22q8 124 35.5 296t60.5 309l185 778h590z" />
    <glyph glyph-name="nacute" unicode="&#xf1;" horiz-adv-x="1472" 
d="M82 969h341v-148h19q35 68 88 104q103 69 323 69q214 0 326 -45q61 -25 112 -77.5t73 -113.5q30 -83 32 -186q1 -49 1 -132v-440h-362v440q0 117 -10 162q-16 76 -92 99q-65 20 -187 20q-188 0 -249 -64q-41 -43 -50 -137q-3 -32 -3 -133v-387h-362v969zM541 1176
l423 420l183 -249l-511 -294z" />
    <glyph glyph-name="Ncaron" unicode="&#xd2;" horiz-adv-x="2091" 
d="M96 1365h729l715 -1018h43l-10 1018h423v-1365h-723l-718 1019h-45l9 -1019h-423v1365zM1556 1778l-510 -276l-509 276l56 133l453 -116l453 116z" />
    <glyph glyph-name="Delta" horiz-adv-x="1359" 
d="M19 0l464 1365h388l469 -1365h-1321zM494 324h362l-176 648z" />
    <glyph glyph-name="guillemotleft" unicode="&#xab;" horiz-adv-x="1317" 
d="M334 916l228 -176l-122 -161l238 -422l-293 -157l-317 576zM903 889l223 -181l-109 -139l231 -413l-291 -156l-316 569z" />
    <glyph glyph-name="guillemotright" unicode="&#xbb;" horiz-adv-x="1323" 
d="M188 717l223 176l265 -324l-317 -569l-291 166l228 413zM754 750l229 174l271 -346l-320 -578l-296 162l241 426z" />
    <glyph glyph-name="ellipsis" unicode="&#x2026;" horiz-adv-x="2007" 
d="M116 363h437v-363h-437v363zM785 363h437v-363h-437v363zM1454 363h437v-363h-437v363z" />
    <glyph glyph-name="glyph172" horiz-adv-x="1857" 
 />
    <glyph glyph-name="ncaron" unicode="&#xf2;" horiz-adv-x="1472" 
d="M82 969h341v-148h19q35 68 88 104q103 69 323 69q214 0 326 -45q61 -25 112 -77.5t73 -113.5q30 -83 32 -186q1 -49 1 -132v-440h-362v440q0 117 -10 162q-16 76 -92 99q-65 20 -187 20q-188 0 -249 -64q-41 -43 -50 -137q-3 -32 -3 -133v-387h-362v969zM1245 1374
l-482 -296l-482 296l56 120l426 -151l426 151z" />
    <glyph glyph-name="Ohungarumlaut" unicode="&#xd5;" horiz-adv-x="2012" 
d="M1018 1385q430 0 596 -22q239 -32 293 -227q37 -134 37 -454q0 -319 -37 -453q-54 -195 -293 -227q-165 -22 -608 -22q-442 0 -608 22q-239 32 -293 227q-37 134 -37 453q0 321 37 454q54 195 293 227q167 22 620 22zM990 1030q-313 0 -380 -17q-81 -21 -104 -95
q-22 -73 -22 -269q0 -127 13 -183q25 -104 151 -119q93 -12 358 -12t358 12q126 15 150 119q14 57 14 177q0 147 -8 209q-14 103 -64 137q-45 32 -189 39q-52 2 -277 2zM1159 1726l-524 -270l-83 115l433 410zM1678 1726l-524 -270l-83 115l433 410z" />
    <glyph glyph-name="Otilde" horiz-adv-x="2012" 
d="M1018 1385q430 0 596 -22q239 -32 293 -227q37 -134 37 -454q0 -319 -37 -453q-54 -195 -293 -227q-165 -22 -608 -22q-442 0 -608 22q-239 32 -293 227q-37 134 -37 453q0 321 37 454q54 195 293 227q167 22 620 22zM990 1030q-313 0 -380 -17q-81 -21 -104 -95
q-22 -73 -22 -269q0 -127 13 -183q25 -104 151 -119q93 -12 358 -12t358 12q126 15 150 119q14 57 14 177q0 147 -8 209q-14 103 -64 137q-45 32 -189 39q-52 2 -277 2zM1309 1851h188q-2 -75 -7 -111q-14 -94 -80 -145q-44 -35 -108 -35q-90 0 -287 57q-190 54 -243 54
q-67 0 -69 -81h-188q4 143 47 203q63 88 180 88q61 0 151 -23q20 -5 148 -41q167 -47 215 -47q38 0 47 30q5 12 6 51z" />
    <glyph glyph-name="ohungarumlaut" unicode="&#xf5;" horiz-adv-x="1481" 
d="M748 994q278 0 419 -30q152 -32 213 -151q34 -66 40 -140q6 -69 6 -169q0 -198 -19 -273q-41 -165 -198 -217q-119 -39 -468 -39q-308 0 -440 31q-159 37 -211 173q-24 64 -29 134q-6 86 -6 191q0 183 23 255q50 151 207 198q126 37 463 37zM740 721q-176 0 -239 -28
q-50 -23 -68 -78q-16 -47 -16 -139q0 -102 19 -142q27 -55 125 -74q66 -12 183 -12q191 0 253 37q42 25 56 77q11 41 11 126q0 111 -25 154q-28 50 -125 67q-68 12 -174 12zM922 1378l-479 -322l-87 99l383 437zM1372 1378l-478 -322l-87 99l383 437z" />
    <glyph glyph-name="Omacron" horiz-adv-x="2012" 
d="M1018 1385q430 0 596 -22q239 -32 293 -227q37 -134 37 -454q0 -319 -37 -453q-54 -195 -293 -227q-165 -22 -608 -22q-442 0 -608 22q-239 32 -293 227q-37 134 -37 453q0 321 37 454q54 195 293 227q167 22 620 22zM990 1030q-313 0 -380 -17q-81 -21 -104 -95
q-22 -73 -22 -269q0 -127 13 -183q25 -104 151 -119q93 -12 358 -12t358 12q126 15 150 119q14 57 14 177q0 147 -8 209q-14 103 -64 137q-45 32 -189 39q-52 2 -277 2zM549 1832h916v-224h-916v224z" />
    <glyph glyph-name="endash" unicode="&#x2013;" horiz-adv-x="1414" 
d="M68 631h1278v-278h-1278v278z" />
    <glyph glyph-name="emdash" unicode="&#x2014;" horiz-adv-x="2274" 
d="M68 631h2138v-278h-2138v278z" />
    <glyph glyph-name="quotedblleft" unicode="&#x201c;" horiz-adv-x="1239" 
d="M1114 601h-416v398q0 135 14 208q9 52 42 92t78 53q65 20 224 20q41 0 101 -1v-201h-27h-26q-72 -1 -94 -39q-17 -28 -17 -73v-52h121v-405zM525 601h-416v398q0 135 14 208q9 52 42 92t78 53q65 20 224 20q41 0 101 -1v-201h-30h-23q-72 -1 -94 -39q-17 -28 -17 -73v-52
h121v-405z" />
    <glyph glyph-name="quotedblright" unicode="&#x201d;" horiz-adv-x="1239" 
d="M125 1365h416v-398q0 -135 -14 -208q-9 -52 -42 -92t-78 -53q-65 -20 -224 -20q-41 0 -101 2v200h27h26q72 1 94 39q17 28 17 73v52h-121v405zM714 1365h416v-398q0 -135 -14 -208q-9 -52 -42 -92t-77 -53q-66 -20 -225 -20q-41 0 -101 2v200h30h23q72 1 94 39
q17 28 17 73v52h-121v405z" />
    <glyph glyph-name="quoteleft" unicode="&#x2018;" horiz-adv-x="684" 
d="M546 601h-437v398q0 136 15 209q10 52 45.5 92t82.5 53q74 20 245 20q49 0 105 -2v-214h-30h-36q-67 -1 -88 -39q-16 -28 -16 -74v-38h114v-405z" />
    <glyph glyph-name="quoteright" unicode="&#x2019;" horiz-adv-x="684" 
d="M139 1365h437v-398q0 -135 -15 -208q-10 -52 -45.5 -92t-83.5 -53q-72 -20 -247 -20q-45 0 -103 2v214h30h37q67 1 89 39q15 27 15 73v38h-114v405z" />
    <glyph glyph-name="divide" unicode="&#xf7;" horiz-adv-x="1857" 
d="M747 447h362v-309h-362v309zM747 1254h362v-309h-362v309zM259 819h1338v-246h-1338v246z" />
    <glyph glyph-name="lozenge" horiz-adv-x="1365" 
d="M683 1419l532 -736l-532 -736l-532 736zM683 1237l-404 -554l404 -555l403 555z" />
    <glyph glyph-name="omacron" horiz-adv-x="1481" 
d="M748 994q278 0 419 -30q152 -32 213 -151q34 -66 40 -140q6 -69 6 -169q0 -198 -19 -273q-41 -165 -198 -217q-119 -39 -468 -39q-308 0 -440 31q-159 37 -211 173q-24 64 -29 134q-6 86 -6 191q0 183 23 255q50 151 207 198q126 37 463 37zM740 721q-176 0 -239 -28
q-50 -23 -68 -78q-16 -47 -16 -139q0 -102 19 -142q27 -55 125 -74q66 -12 183 -12q191 0 253 37q42 25 56 77q11 41 11 126q0 111 -25 154q-28 50 -125 67q-68 12 -174 12zM297 1402h889v-210h-889v210z" />
    <glyph glyph-name="Racute" unicode="&#xc0;" horiz-adv-x="1843" 
d="M96 0v1365h1005q356 -1 420 -7q73 -7 132.5 -42.5t92.5 -90.5q34 -59 41 -123q9 -75 9 -181q0 -167 -23 -233q-35 -98 -132 -136q-33 -13 -99 -23q131 -10 188 -75q25 -29 35.5 -66.5t14.5 -109.5q1 -37 1 -151v-127h-410v73q0 122 -11 175q-16 76 -81 90q-43 9 -181 9
h-586v-347h-416zM512 688h585q131 2 155 4q88 5 111 54q16 34 16 115q0 70 -14 104q-21 50 -101 56q-28 2 -168 3h-584v-336zM1187 1982l159 -320l-582 -203l-85 161z" />
    <glyph glyph-name="racute" unicode="&#xe0;" horiz-adv-x="1220" 
d="M82 969h341v-146h18q41 74 99 111q95 60 275 60q240 0 325 -109q67 -85 67 -268q0 -24 -2 -79h-341q0 85 -18 119q-35 64 -173 64q-129 0 -183 -70q-34 -44 -43 -136q-3 -35 -3 -113v-402h-362v969zM395 1176l423 420l183 -249l-511 -294z" />
    <glyph glyph-name="Rcaron" unicode="&#xd8;" horiz-adv-x="1843" 
d="M96 0v1365h1005q356 -1 420 -7q73 -7 132.5 -42.5t92.5 -90.5q34 -59 41 -123q9 -75 9 -181q0 -167 -23 -233q-35 -98 -132 -136q-33 -13 -99 -23q131 -10 188 -75q25 -29 35.5 -66.5t14.5 -109.5q1 -37 1 -151v-127h-410v73q0 122 -11 175q-16 76 -81 90q-43 9 -181 9
h-586v-347h-416zM512 688h585q131 2 155 4q88 5 111 54q16 34 16 115q0 70 -14 104q-21 50 -101 56q-28 2 -168 3h-584v-336zM1405 1778l-510 -276l-509 276l56 133l453 -116l453 116z" />
    <glyph glyph-name="guilsinglleft" unicode="&#x2039;" horiz-adv-x="744" 
d="M330 889l223 -181l-108 -139l231 -413l-292 -156l-316 569z" />
    <glyph glyph-name="guilsinglright" unicode="&#x203a;" horiz-adv-x="753" 
d="M184 750l229 174l272 -346l-320 -578l-297 162l241 426z" />
    <glyph glyph-name="rcaron" unicode="&#xf8;" horiz-adv-x="1220" 
d="M82 969h341v-146h18q41 74 99 111q95 60 275 60q240 0 325 -109q67 -85 67 -268q0 -24 -2 -79h-341q0 85 -18 119q-35 64 -173 64q-129 0 -183 -70q-34 -44 -43 -136q-3 -35 -3 -113v-402h-362v969zM1092 1374l-482 -296l-482 296l56 120l426 -151l426 151z" />
    <glyph glyph-name="Rcommaaccent" horiz-adv-x="1843" 
d="M96 0v1365h1005q356 -1 420 -7q73 -7 132.5 -42.5t92.5 -90.5q34 -59 41 -123q9 -75 9 -181q0 -167 -23 -233q-35 -98 -132 -136q-33 -13 -99 -23q131 -10 188 -75q25 -29 35.5 -66.5t14.5 -109.5q1 -37 1 -151v-127h-410v73q0 122 -11 175q-16 76 -81 90q-43 9 -181 9
h-586v-347h-416zM512 688h585q131 2 155 4q88 5 111 54q16 34 16 115q0 70 -14 104q-21 50 -101 56q-28 2 -168 3h-584v-336zM746 -109h360v-279q0 -114 -12 -175q-9 -44 -39.5 -77t-71.5 -44q-62 -17 -202 -17q-24 0 -77 1v137h35h31q71 1 93 32q16 24 16 62v41h-133v319z
" />
    <glyph glyph-name="rcommaaccent" horiz-adv-x="1220" 
d="M82 969h341v-146h18q41 74 99 111q95 60 275 60q240 0 325 -109q67 -85 67 -268q0 -24 -2 -79h-341q0 85 -18 119q-35 64 -173 64q-129 0 -183 -70q-34 -44 -43 -136q-3 -35 -3 -113v-402h-362v969zM96 -109h338v-263q0 -106 -12 -164q-8 -41 -36.5 -72.5t-66.5 -41.5
q-58 -16 -189 -16q-24 0 -73 1v129h32h30q67 1 87 30q16 23 16 58v39h-126v300z" />
    <glyph glyph-name="Scaron" unicode="&#x160;" horiz-adv-x="1767" 
d="M48 452h403q-1 -101 41 -130q22 -14 50 -19t98 -7q35 -1 229 -2q266 1 308 3q79 6 104 21q35 22 35 98q0 52 -22 73q-30 29 -143 31q-78 0 -326 12q-256 12 -332 14q-198 6 -279 46q-104 51 -136 174q-18 68 -18 178q0 232 88 327q66 72 200 95q121 20 576 20
q296 0 418 -17q161 -23 232 -80q96 -79 96 -283q0 -22 -1 -70h-403q-2 49 -7 68q-14 56 -92 63q-69 6 -336 6q-264 0 -313 -15q-55 -18 -55 -93q0 -72 58 -88q49 -13 441 -25q355 -10 453 -25q99 -15 157.5 -45t93.5 -85q53 -81 53 -261q0 -201 -52 -295q-52 -93 -170 -127
q-116 -34 -639 -34q-318 0 -459 17q-172 20 -247 78q-81 62 -96 175q-8 55 -8 130v72zM1385 1778l-510 -276l-509 276l56 133l453 -116l453 116z" />
    <glyph glyph-name="quotesinglbase" unicode="&#x201a;" horiz-adv-x="684" 
d="M139 405h437v-398q0 -135 -15 -208q-10 -52 -45.5 -92t-83.5 -53q-72 -20 -247 -20q-45 0 -103 2v214h30h37q67 1 89 39q15 27 15 73v38h-114v405z" />
    <glyph glyph-name="quotedblbase" unicode="&#x201e;" horiz-adv-x="1239" 
d="M125 405h416v-398q0 -135 -14 -208q-9 -52 -42 -92t-78 -53q-65 -20 -224 -20q-45 0 -101 2v200h27h26q72 1 94 39q17 28 17 73v52h-121v405zM714 405h416v-398q0 -135 -14 -208q-9 -52 -42 -92t-77 -53q-66 -20 -225 -20q-45 0 -101 2v200h30h23q72 1 94 39q17 28 17 73
v52h-121v405z" />
    <glyph glyph-name="scaron" unicode="&#x161;" horiz-adv-x="1440" 
d="M51 308h369q4 -47 37 -69q57 -39 263 -39q204 0 258 24q48 21 48 66q0 50 -61 67q-28 7 -309 11q-262 0 -323 9q-170 23 -230 111q-45 66 -45 176q0 216 158 281q119 49 510 49q273 0 401 -26q70 -14 120.5 -52.5t68.5 -91.5q16 -46 22 -129h-369q-10 36 -25 46
q-45 28 -228 28q-188 0 -249 -21q-47 -16 -47 -58q0 -59 87 -65q68 -5 494 -8q204 -1 295 -69q92 -67 92 -233q0 -127 -48 -199q-32 -49 -88 -76.5t-154 -42.5q-137 -22 -401 -22q-287 0 -415 27q-81 18 -137.5 66.5t-77.5 118.5q-14 50 -16 121zM1202 1374l-482 -296
l-482 296l56 120l426 -151l426 151z" />
    <glyph glyph-name="Sacute" unicode="&#x152;" horiz-adv-x="1767" 
d="M48 452h403q-1 -101 41 -130q22 -14 50 -19t98 -7q35 -1 229 -2q266 1 308 3q79 6 104 21q35 22 35 98q0 52 -22 73q-30 29 -143 31q-78 0 -326 12q-256 12 -332 14q-198 6 -279 46q-104 51 -136 174q-18 68 -18 178q0 232 88 327q66 72 200 95q121 20 576 20
q296 0 418 -17q161 -23 232 -80q96 -79 96 -283q0 -22 -1 -70h-403q-2 49 -7 68q-14 56 -92 63q-69 6 -336 6q-264 0 -313 -15q-55 -18 -55 -93q0 -72 58 -88q49 -13 441 -25q355 -10 453 -25q99 -15 157.5 -45t93.5 -85q53 -81 53 -261q0 -201 -52 -295q-52 -93 -170 -127
q-116 -34 -639 -34q-318 0 -459 17q-172 20 -247 78q-81 62 -96 175q-8 55 -8 130v72zM1169 1982l159 -320l-582 -203l-85 161z" />
    <glyph glyph-name="sacute" unicode="&#x153;" horiz-adv-x="1440" 
d="M51 308h369q4 -47 37 -69q57 -39 263 -39q204 0 258 24q48 21 48 66q0 50 -61 67q-28 7 -309 11q-262 0 -323 9q-170 23 -230 111q-45 66 -45 176q0 216 158 281q119 49 510 49q273 0 401 -26q70 -14 120.5 -52.5t68.5 -91.5q16 -46 22 -129h-369q-10 36 -25 46
q-45 28 -228 28q-188 0 -249 -21q-47 -16 -47 -58q0 -59 87 -65q68 -5 494 -8q204 -1 295 -69q92 -67 92 -233q0 -127 -48 -199q-32 -49 -88 -76.5t-154 -42.5q-137 -22 -401 -22q-287 0 -415 27q-81 18 -137.5 66.5t-77.5 118.5q-14 50 -16 121zM504 1176l423 420l183 -249
l-511 -294z" />
    <glyph glyph-name="Aacute" unicode="&#xc1;" horiz-adv-x="2016" 
d="M1578 0l-117 231h-903l-117 -231h-475l724 1365h646l714 -1365h-472zM1315 530l-263 517h-83l-263 -517h609zM1321 1982l159 -320l-582 -203l-85 161z" />
    <glyph glyph-name="Tcaron" horiz-adv-x="1652" 
d="M0 1365h1652v-348h-607v-1017h-437v1017h-608v348zM1336 1778l-510 -276l-509 276l56 133l453 -116l453 116z" />
    <glyph glyph-name="tcaron" horiz-adv-x="1186" 
d="M191 1192h362v-223h573v-259h-573v-282q0 -114 16 -143q27 -50 128 -50q105 0 130 48q13 24 14 75v57h331q-2 -130 -16 -195q-14 -68 -57.5 -122t-104.5 -79q-69 -29 -147 -36q-83 -8 -180 -8q-205 0 -298 30q-64 21 -109 69.5t-57 110.5q-12 61 -12 243v282h-191v259
h191v223zM752 1638h338v-263q0 -106 -12 -164q-8 -41 -36.5 -72.5t-66.5 -41.5q-58 -16 -189 -16q-24 0 -73 1v129h32h30q67 1 87 30q16 22 16 58v39h-126v300z" />
    <glyph glyph-name="Iacute" unicode="&#xcd;" horiz-adv-x="628" 
d="M96 1365h437v-1365h-437v1365zM576 2006l205 -278l-522 -293l-108 140z" />
    <glyph glyph-name="Zcaron" horiz-adv-x="1772" 
d="M63 1365h1638v-313l-1000 -724l1030 13v-341h-1690v319l987 718l-965 -13v341zM1382 1778l-510 -276l-509 276l56 133l453 -116l453 116z" />
    <glyph glyph-name="zcaron" horiz-adv-x="1246" 
d="M77 969h1115v-277l-599 -439h619v-253h-1178v251l622 472h-579v246zM1105 1374l-482 -296l-482 296l56 120l426 -151l426 151z" />
    <glyph glyph-name="Umacron" horiz-adv-x="1952" 
d="M89 1365h416v-627q3 -216 15 -273q20 -97 136 -114q106 -16 321 -16q222 0 312 13q131 20 146 150q12 105 12 240v627h416v-627q-7 -328 -21 -429q-25 -170 -164 -251q-103 -59 -346 -72q-112 -6 -350 -6q-351 0 -499 20q-112 15 -178 41.5t-112 75.5q-63 67 -81 168
q-20 115 -21 278l-2 175v627zM519 1832h916v-224h-916v224z" />
    <glyph glyph-name="Oacute" unicode="&#xd3;" horiz-adv-x="2012" 
d="M1018 1385q430 0 596 -22q239 -32 293 -227q37 -134 37 -454q0 -319 -37 -453q-54 -195 -293 -227q-165 -22 -608 -22q-442 0 -608 22q-239 32 -293 227q-37 134 -37 453q0 321 37 454q54 195 293 227q167 22 620 22zM990 1030q-313 0 -380 -17q-81 -21 -104 -95
q-22 -73 -22 -269q0 -127 13 -183q25 -104 151 -119q93 -12 358 -12t358 12q126 15 150 119q14 57 14 177q0 147 -8 209q-14 103 -64 137q-45 32 -189 39q-52 2 -277 2zM1318 1982l159 -320l-582 -203l-85 161z" />
    <glyph glyph-name="Ocircumflex" unicode="&#xd4;" horiz-adv-x="2012" 
d="M1018 1385q430 0 596 -22q239 -32 293 -227q37 -134 37 -454q0 -319 -37 -453q-54 -195 -293 -227q-165 -22 -608 -22q-442 0 -608 22q-239 32 -293 227q-37 134 -37 453q0 321 37 454q54 195 293 227q167 22 620 22zM990 1030q-313 0 -380 -17q-81 -21 -104 -95
q-22 -73 -22 -269q0 -127 13 -183q25 -104 151 -119q93 -12 358 -12t358 12q126 15 150 119q14 57 14 177q0 147 -8 209q-14 103 -64 137q-45 32 -189 39q-52 2 -277 2zM497 1663l509 276l510 -276l-57 -134l-453 117l-453 -117z" />
    <glyph glyph-name="umacron" horiz-adv-x="1469" 
d="M1387 0h-341v145h-18q-34 -73 -92 -108q-104 -62 -323 -62q-206 0 -320 46q-62 25 -112 77t-73 113q-28 78 -31 171q-2 55 -2 144v443h362v-443q0 -111 12 -161q20 -78 102 -101q56 -16 171 -16q176 0 239 54q49 42 59 137q5 42 5 140v390h362v-969zM290 1402h889v-210
h-889v210z" />
    <glyph glyph-name="Uring" unicode="&#xd9;" horiz-adv-x="1952" 
d="M89 1365h416v-627q3 -216 15 -273q20 -97 136 -114q106 -16 321 -16q222 0 312 13q131 20 146 150q12 105 12 240v627h416v-627q-7 -328 -21 -429q-25 -170 -164 -251q-103 -59 -346 -72q-112 -6 -350 -6q-351 0 -499 20q-112 15 -178 41.5t-112 75.5q-63 67 -81 168
q-20 115 -21 278l-2 175v627zM1010 2072q205 0 276 -42q49 -29 63 -90q11 -51 11 -186q0 -155 -21 -202q-33 -73 -147 -92q-78 -13 -245 -13q-202 0 -269 35q-57 31 -74 101q-11 45 -11 181q0 164 27 213q37 68 155 84q81 11 235 11zM963 1900q-81 0 -114 -18
q-25 -13 -34 -40t-9 -82q0 -75 16 -102q17 -30 64 -35q33 -3 86 -3q112 0 138 21q22 16 29 45q5 22 5 75q0 74 -16 97q-21 31 -68 37q-48 5 -97 5z" />
    <glyph glyph-name="Uacute" unicode="&#xda;" horiz-adv-x="1952" 
d="M89 1365h416v-627q3 -216 15 -273q20 -97 136 -114q106 -16 321 -16q222 0 312 13q131 20 146 150q12 105 12 240v627h416v-627q-7 -328 -21 -429q-25 -170 -164 -251q-103 -59 -346 -72q-112 -6 -350 -6q-351 0 -499 20q-112 15 -178 41.5t-112 75.5q-63 67 -81 168
q-20 115 -21 278l-2 175v627zM1261 1982l159 -320l-582 -203l-85 161z" />
    <glyph glyph-name="uring" unicode="&#xf9;" horiz-adv-x="1469" 
d="M1387 0h-341v145h-18q-34 -73 -92 -108q-104 -62 -323 -62q-206 0 -320 46q-62 25 -112 77t-73 113q-28 78 -31 171q-2 55 -2 144v443h362v-443q0 -111 12 -161q20 -78 102 -101q56 -16 171 -16q176 0 239 54q49 42 59 137q5 42 5 140v390h362v-969zM845 1672
q141 0 188 -42q35 -33 43 -85q10 -65 10 -156q0 -172 -16 -212q-24 -62 -90 -77q-60 -14 -360 -14q-133 0 -176 47q-35 38 -41 100q-6 66 -6 161q0 146 21 192q28 61 97 74q63 12 330 12zM752 1487q-115 0 -138 -16q-31 -21 -31 -93q0 -83 44 -98q24 -9 109 -9q116 0 139 20
q26 24 26 88q0 81 -44 98q-25 10 -105 10z" />
    <glyph glyph-name="Uhungarumlaut" unicode="&#xdb;" horiz-adv-x="1952" 
d="M89 1365h416v-627q3 -216 15 -273q20 -97 136 -114q106 -16 321 -16q222 0 312 13q131 20 146 150q12 105 12 240v627h416v-627q-7 -328 -21 -429q-25 -170 -164 -251q-103 -59 -346 -72q-112 -6 -350 -6q-351 0 -499 20q-112 15 -178 41.5t-112 75.5q-63 67 -81 168
q-20 115 -21 278l-2 175v627zM1129 1726l-524 -270l-83 115l433 410zM1648 1726l-524 -270l-83 115l433 410z" />
    <glyph glyph-name="uhungarumlaut" unicode="&#xfb;" horiz-adv-x="1469" 
d="M1387 0h-341v145h-18q-34 -73 -92 -108q-104 -62 -323 -62q-206 0 -320 46q-62 25 -112 77t-73 113q-28 78 -31 171q-2 55 -2 144v443h362v-443q0 -111 12 -161q20 -78 102 -101q56 -16 171 -16q176 0 239 54q49 42 59 137q5 42 5 140v390h362v-969zM902 1378l-479 -322
l-87 99l383 437zM1352 1378l-478 -322l-87 99l383 437z" />
    <glyph glyph-name="Uogonek" horiz-adv-x="1952" 
d="M1481 0l-156 -161q-49 -50 -49 -96q0 -82 114 -82h107v-170h-168q-127 0 -201 61q-51 45 -51 120v62q0 100 72 154l130 95q-308 -3 -340 -3q-395 0 -571 41q-219 51 -256 264q-20 115 -21 278l-2 175v627h416v-627q3 -216 15 -273q20 -97 136 -114q106 -16 321 -16
q223 0 312 13q131 20 146 150q12 105 12 240v627h416v-627q-6 -310 -21 -429q-26 -172 -164 -252q-74 -39 -197 -57z" />
    <glyph glyph-name="uogonek" horiz-adv-x="1469" 
d="M1206 0h-160v145h-18q-34 -73 -91 -108q-105 -62 -324 -62q-206 0 -320 46q-62 26 -112 77.5t-73 112.5q-28 78 -31 171q-2 55 -2 144v443h362v-443q0 -111 12 -161q20 -78 102 -101q56 -16 171 -16q176 0 240 54q48 42 58 137q5 43 5 140v390h362v-969l-159 -151
q-46 -44 -46 -91q0 -77 107 -77h101v-160h-158q-119 0 -189 57q-48 42 -48 113v58q0 95 68 145z" />
    <glyph glyph-name="Yacute" unicode="&#xdd;" horiz-adv-x="1878" 
d="M-41 1365h547l445 -547l426 547h542l-747 -882v-483h-430v483zM1252 1982l159 -320l-582 -203l-85 161z" />
    <glyph glyph-name="yacute" unicode="&#xfd;" horiz-adv-x="1329" 
d="M-27 969h398l276 -704l308 704h401l-516 -1094q-73 -153 -96 -189q-53 -81 -160 -105q-73 -17 -168 -17q-125 0 -164 5v250q22 1 81 1q110 -1 156 57q33 43 63 123h-147zM449 1176l423 420l183 -249l-511 -294z" />
    <glyph glyph-name="kcommaaccent" horiz-adv-x="1365" 
d="M82 1365h362v-714h78l332 318h486l-503 -453l569 -516h-480l-390 388h-92v-388h-362v1365zM516 -109h338v-263q0 -106 -12 -164q-8 -41 -36.5 -72.5t-66.5 -41.5q-58 -16 -189 -16q-24 0 -73 1v129h32h30q67 1 87 30q16 23 16 58v39h-126v300z" />
    <glyph glyph-name="Zdotaccent" unicode="&#xaf;" horiz-adv-x="1772" 
d="M63 1365h1638v-313l-1000 -724l1030 13v-341h-1690v319l987 718l-965 -13v341zM662 1871h407v-302h-407v302z" />
    <glyph glyph-name="Lslash" unicode="&#xa3;" horiz-adv-x="1524" 
d="M116 1365h437v-452l308 200v-245l-308 -199v-321h971v-348h-1408v405l-117 -76v244l117 76v716z" />
    <glyph glyph-name="zdotaccent" unicode="&#xbf;" horiz-adv-x="1246" 
d="M77 969h1115v-277l-599 -439h619v-253h-1178v251l622 472h-579v246zM428 1430h390v-267h-390v267z" />
    <glyph glyph-name="Gcommaaccent" horiz-adv-x="1946" 
d="M925 774h951q2 -45 2 -58q0 -268 -15 -414q-24 -236 -268 -286q-126 -25 -276 -30q-159 -6 -377 -6q-387 0 -553 28q-230 38 -285 212q-27 85 -31 195q-5 138 -5 294q0 264 25 371q36 149 124 210q46 33 115.5 50.5t196.5 28.5q179 16 484 16q392 0 555 -31
q165 -31 232 -110q59 -71 72 -224q3 -41 3 -126h-416q-1 56 -6 76q-14 51 -89 61q-99 13 -390 13q-259 0 -359 -17q-95 -17 -115 -104q-16 -66 -16 -235q0 -194 17 -265q22 -95 136 -106q56 -5 338 -9q308 2 397 12q81 13 93 71q7 36 7 110h-547v273zM784 -109h360v-279
q0 -114 -12 -175q-9 -44 -39.5 -77t-71.5 -44q-62 -17 -202 -17q-24 0 -77 1v137h35h31q71 1 93 32q16 24 16 62v41h-133v319z" />
    <glyph glyph-name="caron" unicode="&#xa1;" 
d="M994 1374l-482 -296l-482 296l56 120l426 -151l426 151z" />
    <glyph glyph-name="nbspace" unicode="&#xa0;" horiz-adv-x="512" 
 />
    <glyph glyph-name="breve" unicode="&#xa2;" 
d="M35 1472h197q24 -69 65 -96q76 -50 215 -50q133 0 209 47q46 28 71 99h196q-19 -129 -95 -212q-127 -139 -375 -139q-279 0 -403 164q-64 84 -80 187z" />
    <glyph glyph-name="currency" unicode="&#xa4;" horiz-adv-x="1857" 
d="M1479 957q18 -40 25 -75q11 -50 11 -187q0 -165 -16 -229q-7 -28 -20 -58l170 -170l-174 -173l-202 202q-110 -20 -344 -20q-235 0 -345 20l-202 -202l-174 173l170 170q-17 40 -25 81q-11 61 -11 204q0 152 15 208q7 25 21 56l-170 170l174 173l203 -203q118 21 343 21
q227 0 343 -21l204 203l174 -173zM928 907q-167 0 -227 -27q-48 -21 -65 -74q-15 -44 -15 -132q0 -97 18 -135q25 -51 119 -69q63 -12 175 -12q181 0 239 35q41 24 54 73q10 39 10 120q0 105 -24 146q-27 47 -119 63q-65 12 -165 12z" />
    <glyph glyph-name="brokenbar" unicode="&#xa6;" 
d="M313 1365h398v-741h-398v741zM313 314h398v-655h-398v655z" />
    <glyph glyph-name="Scedilla" unicode="&#xaa;" horiz-adv-x="1767" 
d="M909 -20v-90h154q70 -1 93 -24q25 -27 24 -99v-226q-1 -83 -25 -103q-27 -21 -114 -20h-290v173h170q48 1 58 10q8 8 9 39v44q0 31 -7 38q-10 10 -60 10h-164v248q-322 5 -464 33q-172 35 -222 172q-23 65 -23 199v68h403q-1 -101 41 -130q22 -14 50 -19t98 -7
q35 -1 229 -2q267 1 309 3q79 5 104 21q35 22 35 98q0 51 -22 72q-30 29 -143 31q-81 1 -327 13q-263 13 -332 14q-198 6 -279 46q-104 50 -136 174q-18 67 -18 178q0 232 88 327q66 72 200 95q121 20 576 20q296 0 418 -17q161 -23 232 -80q96 -79 96 -285q0 -23 -1 -68
h-403q-1 49 -6 68q-15 56 -93 63q-69 6 -336 6q-263 0 -313 -15q-55 -18 -55 -93q0 -72 58 -88q48 -13 442 -25q356 -11 453 -25q99 -15 157.5 -45t93.5 -85q53 -81 53 -261q0 -201 -52 -295q-51 -92 -170 -127q-92 -27 -280 -30l-154 -2z" />
    <glyph glyph-name="sfthyphen" unicode="&#xad;" horiz-adv-x="864" 
d="M3 630h861v-277h-864z" />
    <glyph glyph-name="plusminus" unicode="&#xb1;" horiz-adv-x="1857" 
d="M805 707h-546v246h546v426h246v-426h546v-246h-546v-426h-246v426zM259 232h1338v-232h-1338v232z" />
    <glyph glyph-name="ogonek" unicode="&#xb2;" 
d="M683 0h181l-159 -151q-46 -44 -46 -91q0 -77 107 -77h101v-160h-159q-119 0 -188 57q-48 43 -48 113v58q0 95 68 145z" />
    <glyph glyph-name="acute" unicode="&#xb4;" 
d="M297 1176l423 420l183 -249l-511 -294z" />
    <glyph glyph-name="mu" unicode="&#xb5;" horiz-adv-x="1469" 
d="M75 969h362v-443q0 -111 12 -161q20 -78 102 -101q56 -16 171 -16q176 0 239 54q49 42 59 137q5 42 5 140v390h362v-969h-341v145h-18q-35 -74 -92 -108q-106 -62 -295 -62q-134 0 -204 44v-422h-362v1372z" />
    <glyph glyph-name="middot" unicode="&#xb7;" horiz-adv-x="669" 
d="M116 673h437v-363h-437v363z" />
    <glyph glyph-name="cedilla" unicode="&#xb8;" 
d="M378 0h147v-109h149q68 -1 90 -23q25 -25 24 -94v-198q-1 -81 -25 -101q-26 -20 -110 -19h-281v148h172q46 1 55 12q8 10 9 49v29q0 37 -7 45q-9 12 -57 12h-166v249z" />
    <glyph glyph-name="scedilla" unicode="&#xba;" horiz-adv-x="1440" 
d="M733 -24v-85h149q68 -1 90 -23q25 -25 24 -94v-198q-1 -82 -25 -101q-26 -20 -110 -19h-281v148h172q46 1 55 12q8 10 9 49v29q0 37 -7 45q-9 12 -57 12h-166v226q-135 3 -187 8q-142 15 -209 53q-137 79 -139 270h369q4 -46 37 -69q57 -38 263 -38q205 0 259 23
q48 21 48 67q0 50 -61 66q-29 8 -310 11q-262 1 -323 9q-169 23 -230 111q-45 66 -45 176q0 216 158 281q119 49 510 49q273 0 402 -26q69 -14 119.5 -52.5t68.5 -91.5q16 -46 22 -129h-369q-10 36 -25 46q-45 28 -229 28q-187 0 -248 -21q-47 -16 -47 -58q0 -59 87 -65
q69 -5 495 -8q204 -1 295 -69q92 -67 92 -232q0 -127 -50 -201t-153 -100q-149 -37 -453 -39z" />
    <glyph glyph-name="hungarumlaut" unicode="&#xbd;" 
d="M679 1378l-479 -322l-87 99l383 437zM1129 1378l-478 -322l-87 99l383 437z" />
    <glyph glyph-name="Acircumflex" unicode="&#xc2;" horiz-adv-x="2016" 
d="M1578 0l-117 231h-903l-117 -231h-475l724 1365h646l714 -1365h-472zM1315 530l-263 517h-83l-263 -517h609zM499 1663l509 276l510 -276l-57 -134l-453 117l-453 -117z" />
    <glyph glyph-name="Abreve" unicode="&#xc3;" horiz-adv-x="2016" 
d="M1578 0l-117 231h-903l-117 -231h-475l724 1365h646l714 -1365h-472zM1315 530l-263 517h-83l-263 -517h609zM512 1880h205q26 -53 68 -72q81 -37 224 -37q137 0 217 35q47 20 74 74h204q-18 -117 -99 -194q-132 -126 -390 -126q-167 0 -290 55q-126 56 -185 176
q-19 39 -28 89z" />
    <glyph glyph-name="Ccedilla" unicode="&#xc7;" horiz-adv-x="1862" 
d="M960 -20v-90h153q70 -1 93 -24q25 -27 24 -99v-226q-1 -83 -25 -103q-27 -21 -114 -20h-289v173h170q48 1 57 10q9 8 9 39v44q0 30 -7 38q-10 10 -59 10h-164v250q-240 4 -301 9q-129 12 -206.5 36.5t-127.5 70.5q-67 61 -85 163q-20 108 -20 412q0 293 15 395
q22 153 119 222q74 52 237 74q167 22 602 22q259 0 369 -11q166 -16 242 -64q94 -59 119 -171q18 -79 18 -183q0 -19 -1 -81h-417q-1 50 -4 68q-7 61 -54 77q-71 24 -388 24q-216 0 -298 -12q-100 -14 -124 -109q-19 -77 -19 -248q0 -177 19 -243q24 -87 132 -101
q89 -11 309 -11q239 0 325 10q83 9 104 59q19 42 21 137h416q4 -104 4 -138q0 -215 -97 -302q-109 -98 -445 -105q-43 -1 -156 -1q-52 0 -156 -1z" />
    <glyph glyph-name="Edieresis" unicode="&#xcb;" horiz-adv-x="1650" 
d="M96 1365h1512v-321h-1102v-197h1046v-300h-1046v-219h1110v-328h-1520v1365zM348 1868h396v-295h-396v295zM962 1868h396v-295h-396v295z" />
    <glyph glyph-name="Icircumflex" unicode="&#xce;" horiz-adv-x="628" 
d="M95 1365h437v-1365h-437v1365zM314 1646l-304 -112l-69 129l373 276l372 -276l-69 -129z" />
    <glyph glyph-name="multiply" unicode="&#xd7;" horiz-adv-x="1857" 
d="M929 523l-410 -410l-174 173l410 410l-410 410l174 174l410 -410l409 410l174 -174l-410 -410l410 -410l-174 -173z" />
    <glyph glyph-name="Tcommaaccent" unicode="&#xde;" horiz-adv-x="1652" 
d="M0 1365h1652v-348h-607v-1017h-437v1017h-608v348zM645 -109h360v-279q0 -114 -12 -175q-9 -44 -39.5 -77t-71.5 -44q-62 -17 -202 -17q-24 0 -77 1v137h35h31q71 1 93 32q16 24 16 62v41h-133v319z" />
    <glyph glyph-name="acircumflex" unicode="&#xe2;" horiz-adv-x="1433" 
d="M451 665h-361q7 113 48 171q61 87 167 118q140 41 489 41q270 0 365 -26q87 -23 144 -105q55 -78 55 -281v-583h-348v132h-17q-40 -84 -127 -122q-52 -23 -148 -30q-76 -5 -247 -5q-190 0 -271 32q-97 39 -129 128q-20 57 -20 141q0 169 83 244q91 81 288 90q115 5 294 5
q128 0 189 -22q39 -15 75 -54h16v51q0 98 -28 128q-30 33 -111 41q-32 3 -104 3q-217 0 -259 -20q-35 -16 -43 -77zM693 409q-183 0 -227 -22q-53 -26 -53 -81q0 -65 68 -84q54 -15 183 -15q168 0 240 17q85 20 85 93q0 58 -59 80q-31 12 -237 12zM248 1220l482 296
l482 -296l-56 -120l-426 151l-426 -151z" />
    <glyph glyph-name="abreve" unicode="&#xe3;" horiz-adv-x="1433" 
d="M451 665h-361q7 113 48 171q61 87 167 118q140 41 489 41q270 0 365 -26q87 -23 144 -105q55 -78 55 -281v-583h-348v132h-17q-40 -84 -127 -122q-52 -23 -148 -30q-76 -5 -247 -5q-190 0 -271 32q-97 39 -129 128q-20 57 -20 141q0 169 83 244q91 81 288 90q115 5 294 5
q128 0 189 -22q39 -15 75 -54h16v51q0 98 -28 128q-30 33 -111 41q-32 3 -104 3q-217 0 -259 -20q-35 -16 -43 -77zM693 409q-183 0 -227 -22q-53 -26 -53 -81q0 -65 68 -84q54 -15 183 -15q168 0 240 17q85 20 85 93q0 58 -59 80q-31 12 -237 12zM253 1472h197
q24 -69 65 -96q76 -50 215 -50q133 0 209 47q46 28 71 99h196q-19 -129 -95 -212q-127 -139 -375 -139q-279 0 -403 164q-64 84 -80 187z" />
    <glyph glyph-name="ccedilla" unicode="&#xe7;" horiz-adv-x="1432" 
d="M728 -24v-85h149q68 -1 90 -23q25 -25 24 -94v-198q-1 -82 -25 -101q-25 -20 -110 -19h-281v148h172q46 1 55 12q8 10 9 49v29q0 37 -7 45q-9 12 -57 12h-166v226q-249 7 -356 60q-112 57 -146 180q-24 86 -24 275q0 217 44 313q53 117 197 155q131 34 421 34
q299 0 439 -40q144 -40 191 -158q30 -75 35 -221h-369q-7 66 -41 94q-63 52 -257 52q-159 0 -224 -30q-42 -21 -59 -72q-15 -48 -15 -140q0 -108 25 -152q28 -49 120 -66q64 -12 159 -12q197 0 252 50q30 27 39 90h369q-4 -152 -42 -227q-41 -81 -120.5 -123t-217.5 -54
q-85 -8 -273 -9z" />
    <glyph glyph-name="edieresis" unicode="&#xeb;" horiz-adv-x="1420" 
d="M997 310h361q-15 -158 -96 -227q-74 -64 -220 -88q-119 -20 -360 -20q-259 0 -390 36q-143 39 -195 157q-30 67 -36 140q-6 74 -6 172q0 196 25 274q47 154 206 203q120 37 431 37q242 0 341 -17q110 -19 174 -63t95 -123q39 -97 39 -272q0 -36 -2 -113h-947
q0 -71 10 -106q18 -62 95 -78q72 -15 186 -15q152 0 220 17q57 13 69 86zM1002 604q-1 47 -5 67q-10 60 -72 78q-68 20 -203 20q-212 0 -261 -45q-41 -37 -44 -120h585zM266 1427h382v-260h-382v260zM785 1427h382v-260h-382v260z" />
    <glyph glyph-name="icircumflex" unicode="&#xee;" horiz-adv-x="526" 
d="M82 969h362v-969h-362v969zM262 1251l-277 -145l-68 114l345 296l346 -296l-69 -114z" />
    <glyph glyph-name="tcommaaccent" unicode="&#xfe;" horiz-adv-x="1186" 
d="M191 1192h362v-223h573v-259h-573v-282q0 -114 16 -143q27 -50 128 -50q105 0 130 48q13 24 14 75v57h331q-2 -130 -16 -195q-14 -68 -57.5 -122t-104.5 -79q-69 -29 -147 -36q-83 -8 -180 -8q-205 0 -298 30q-64 21 -109 69.5t-57 110.5q-12 61 -12 243v282h-191v259
h191v223zM481 -109h338v-263q0 -106 -12 -164q-8 -41 -36.5 -72.5t-66.5 -41.5q-58 -16 -189 -16q-24 0 -73 1v129h32h30q67 1 87 30q16 23 16 58v39h-126v300z" />
    <glyph glyph-name="dotaccent" unicode="&#xff;" 
d="M317 1430h390v-267h-390v267z" />
    <glyph glyph-name="daggerdbl" unicode="&#x2021;" horiz-adv-x="1857" 
d="M715 867h-526v280h526v437h410v-437h525v-280h-525v-321h525v-280h-525v-457h-410v457h-526v280h526v321z" />
    <glyph glyph-name="perthousand" unicode="&#x2030;" horiz-adv-x="3913" 
d="M589 1386q334 0 447 -54q63 -30 78 -131q8 -55 8 -222q0 -213 -21 -278q-21 -67 -109 -93q-123 -37 -409 -37q-317 0 -434 44q-76 29 -96 122q-12 58 -12 245q0 226 29 289q30 64 134 87q124 28 385 28zM575 1174q-184 0 -239 -22q-34 -13 -46 -62q-9 -37 -9 -112
q0 -100 18 -139q15 -32 60 -43q61 -14 219 -14q178 0 250 20q34 10 44 60q9 44 9 116q0 95 -16 142q-11 30 -64 40q-83 14 -226 14zM2008 1397l140 -160l-1407 -1269l-144 161zM2152 801q326 0 456 -53q72 -29 89 -131q8 -50 8 -227q0 -134 -4.5 -190t-18.5 -94
q-24 -65 -121 -90q-140 -37 -417 -37q-299 0 -419 47q-73 29 -92 115q-13 58 -13 253q0 131 6.5 195t23.5 98q29 59 125 83q127 31 377 31zM2142 586q-169 0 -225 -20q-35 -13 -46 -61q-9 -38 -9 -115q0 -102 17 -142q14 -31 62 -42q61 -13 204 -13q194 0 264 21q32 9 43 51
q12 44 12 125q0 104 -20 147q-12 26 -57 34q-85 15 -245 15zM3319 801q327 0 456 -53q72 -29 89 -131q8 -50 8 -227q0 -134 -4.5 -190t-18.5 -94q-24 -65 -121 -90q-140 -37 -417 -37q-298 0 -419 47q-73 29 -92 115q-13 58 -13 253q0 131 6.5 195t23.5 98q29 59 125 83
q127 31 377 31zM3309 586q-169 0 -225 -20q-35 -13 -46 -61q-9 -38 -9 -115q0 -102 17 -142q14 -31 62 -42q61 -13 204 -13q194 0 264 21q32 9 43 51q12 44 12 125q0 104 -20 147q-12 26 -57 34q-85 15 -245 15z" />
    <glyph glyph-name="periodcentered" unicode="&#x2219;" horiz-adv-x="669" 
d="M116 673h437v-363h-437v363z" />
    <glyph glyph-name="glyph257" 
d="M323 -109h360v-279q0 -114 -12 -175q-9 -44 -39.5 -77t-71.5 -44q-62 -17 -202 -17q-24 0 -77 1v137h35h31q71 1 93 32q16 24 16 62v41h-133v319z" />
    <glyph glyph-name="glyph258" 
d="M30 1220l482 296l482 -296l-56 -120l-426 151l-426 -151z" />
    <glyph glyph-name="glyph259" 
d="M16 1880h205q26 -53 68 -72q81 -37 224 -37q137 0 217 35q47 20 74 74h204q-18 -117 -99 -194q-132 -126 -390 -126q-167 0 -290 55q-126 56 -185 176q-19 39 -28 89z" />
    <glyph glyph-name="glyph260" 
d="M616 1672q141 0 188 -42q35 -33 43 -85q10 -65 10 -156q0 -172 -16 -212q-24 -62 -90 -77q-60 -14 -360 -14q-133 0 -176 47q-35 38 -41 100q-6 66 -6 161q0 146 21 192q28 61 97 74q63 12 330 12zM523 1487q-115 0 -138 -16q-31 -21 -31 -93q0 -83 44 -98q24 -9 109 -9
q116 0 139 20q26 24 26 88q0 81 -44 98q-25 10 -105 10z" />
    <glyph glyph-name="glyph261" 
d="M68 1402h889v-210h-889v210z" />
    <glyph glyph-name="glyph262" 
d="M3 1663l509 276l510 -276l-57 -134l-453 117l-453 -117z" />
    <glyph glyph-name="glyph263" 
d="M7 1868h396v-295h-396v295zM621 1868h396v-295h-396v295z" />
    <glyph glyph-name="glyph264" 
d="M55 1832h916v-224h-916v224z" />
    <glyph glyph-name="glyph265" 
d="M849 1365h338v-263q0 -106 -12 -164q-8 -41 -36.5 -72.5t-66.5 -41.5q-58 -16 -189 -16q-24 0 -73 1v129h32h30q67 1 87 30q16 22 16 58v39h-126v300z" />
    <glyph glyph-name="glyph266" 
d="M546 2072q205 0 276 -42q49 -29 63 -90q11 -51 11 -186q0 -155 -21 -202q-33 -73 -147 -92q-78 -13 -245 -13q-202 0 -269 35q-57 31 -74 101q-11 45 -11 181q0 164 27 213q37 68 155 84q81 11 235 11zM499 1900q-81 0 -114 -18q-25 -13 -34 -40t-9 -82q0 -75 16 -102
q17 -30 64 -35q33 -3 86 -3q112 0 138 21q22 16 29 45q5 22 5 75q0 74 -16 97q-21 31 -68 37q-48 5 -97 5z" />
    <glyph glyph-name="glyph267" 
d="M825 1982l159 -320l-582 -203l-85 161z" />
    <glyph glyph-name="glyph268" 
d="M665 1726l-524 -270l-83 115l433 410zM1184 1726l-524 -270l-83 115l433 410z" />
    <glyph glyph-name="glyph269" 
d="M815 1851h188q-2 -75 -7 -111q-14 -94 -80 -145q-44 -35 -108 -35q-90 0 -287 57q-190 54 -243 54q-67 0 -69 -81h-188q4 143 47 203q63 88 180 88q61 0 151 -23q20 -5 148 -41q167 -47 215 -47q38 0 47 30q5 12 6 51z" />
    <glyph glyph-name="glyph270" 
d="M586 1365h360v-279q0 -114 -12 -175q-9 -44 -39.5 -77t-71.5 -44q-62 -17 -202 -17q-24 0 -77 1v137h35h31q71 1 93 32q16 24 16 62v41h-133v319z" />
    <glyph glyph-name="glyph271" 
d="M1022 1778l-510 -276l-509 276l56 133l453 -116l453 116z" />
    <glyph glyph-name="glyph272" 
d="M345 -109h338v-263q0 -106 -12 -164q-8 -41 -36.5 -72.5t-66.5 -41.5q-58 -16 -189 -16q-24 0 -73 1v129h32h30q67 1 87 30q16 23 16 58v39h-126v300z" />
    <glyph glyph-name="glyph273" 
d="M309 1871h407v-302h-407v302z" />
    <glyph glyph-name="glyph274" 
d="M690 1123h-338v263q0 106 12 164q8 41 36.5 72.5t67.5 41.5q58 16 188 16q24 0 73 -1v-129h-32h-30q-66 -1 -87 -30q-15 -23 -15 -58v-39h125v-300z" />
    <glyph glyph-name="glyph275" 
d="M803 1441h181q-1 -158 -36 -222q-51 -92 -145 -92q-88 0 -276 70q-180 66 -233 66q-46 0 -62 -41q-9 -23 -10 -69h-181q2 152 44 218q59 96 169 96q58 0 145 -28q29 -10 141 -51q158 -57 206 -57q41 0 52 40q4 18 5 70z" />
    <glyph glyph-name="glyph276" horiz-adv-x="512" 
 />
    </font>
</defs>
</svg>
